<svg width="71" height="73" viewBox="0 0 71 73" fill="none" xmlns="http://www.w3.org/2000/svg">
<path d="M0.113178 21.0625C0.0775227 21.0892 0.0507812 21.2317 0.0507812 21.3743C0.0507812 21.5613 0.0953504 21.6237 0.229058 21.6237C0.32711 21.6237 0.407334 21.6593 0.407334 21.7039C0.407334 21.7484 0.523214 21.8286 0.665835 21.891C1.00456 22.0246 1.80681 22.8709 2.21684 23.5034C2.77841 24.3765 3.50935 25.9355 4.28485 27.9132C4.7038 28.9911 5.08709 29.9443 5.12275 30.0423C5.16732 30.1403 5.27428 30.4165 5.36342 30.6659C5.44365 30.9065 5.57736 31.2539 5.64867 31.4232C5.72889 31.5924 5.79129 31.7706 5.80911 31.824C5.81803 31.9042 6.21024 32.9376 6.47765 33.6058C6.60245 33.9087 6.86986 34.6213 7.25316 35.6547C7.40469 36.0467 7.57405 36.4832 7.63645 36.6347C7.68993 36.7772 7.75233 36.9376 7.77016 36.991C7.77907 37.0356 8.00192 37.6235 8.2515 38.2828C8.51 38.942 8.81308 39.7438 8.92896 40.0645C9.04484 40.3852 9.17854 40.7237 9.22311 40.8217C9.26768 40.9197 10.2215 43.4052 11.3268 46.3451C12.441 49.2849 13.377 51.7258 13.4126 51.7793C13.4394 51.8238 13.4661 51.8862 13.4661 51.9129C13.4839 52.0198 13.7246 52.6969 13.8672 53.0265C13.9564 53.2225 14.411 54.4251 14.8923 55.6991C15.3647 56.973 15.8104 58.1311 15.8728 58.2826C15.9352 58.4251 16.0957 58.8527 16.2294 59.218C16.3631 59.5832 16.5414 60.0287 16.6127 60.1979C16.684 60.3672 16.7553 60.5721 16.7731 60.6523C16.791 60.7324 16.8801 60.9819 16.9781 61.2046C17.1564 61.6233 17.1564 61.6233 17.5932 61.6233C17.8428 61.6233 18.0745 61.5787 18.1191 61.5075C18.1993 61.4095 19.1175 59.2002 19.1709 58.9953C19.1799 58.9418 19.2512 58.7636 19.3314 58.5944C19.5364 58.1311 19.9375 57.1334 19.9643 57.0354C19.9821 56.9819 20.0712 56.7681 20.1693 56.5454C20.3208 56.2069 20.4634 55.8327 20.508 55.6545C20.5169 55.6278 20.615 55.4051 20.722 55.1646C20.8378 54.9151 21.025 54.4608 21.1498 54.1401C21.2746 53.8194 21.444 53.4007 21.5331 53.2047C21.6133 53.0087 21.9164 52.2693 22.2016 51.5566C22.478 50.8439 22.7454 50.1936 22.79 50.1134C22.8702 49.9441 23.8507 47.5566 23.8864 47.4141C23.9042 47.3606 24.0022 47.129 24.1003 46.8974C24.2073 46.6569 24.2964 46.4252 24.2964 46.3807C24.2964 46.3361 24.341 46.2292 24.3855 46.1402C24.439 46.06 24.7956 45.2048 25.1878 44.2604C25.7226 42.942 25.8741 42.4965 25.7939 42.4075C25.7226 42.3184 25.7315 42.3005 25.8296 42.3362C25.9276 42.3718 26.0257 42.2204 26.204 41.766C26.3377 41.4186 26.4179 41.089 26.3822 41.0355C26.3466 40.9732 26.3555 40.9554 26.4179 40.991C26.4625 41.0177 26.5249 40.9999 26.5427 40.9554C26.5605 40.9019 27.0329 41.9709 27.5945 43.3339C28.1561 44.697 28.6553 45.8373 28.7087 45.8729C28.7533 45.9085 28.7711 45.9442 28.7355 45.9442C28.682 45.9442 29.092 47.0221 29.5021 47.9486C29.8675 48.7682 30.0904 49.3205 30.0636 49.3562C30.0547 49.374 30.1171 49.4898 30.2063 49.6234C30.2865 49.757 30.34 49.8639 30.3221 49.8639C30.2865 49.8639 30.4469 50.2737 30.8035 51.0666C30.8391 51.1646 31.1511 51.904 31.472 52.7147C31.8018 53.5254 32.1495 54.3628 32.2475 54.5855C32.4436 55.022 32.4525 55.0398 32.818 55.9663C32.9517 56.3049 33.0943 56.6256 33.1389 56.6701C33.1746 56.7236 33.2102 56.8126 33.2102 56.8839C33.2102 56.9463 33.3261 57.2403 33.4687 57.5342C33.6203 57.8193 33.7183 58.0599 33.6916 58.0599C33.6737 58.0599 33.7183 58.1935 33.8075 58.3449C33.8877 58.5053 33.9679 58.6745 33.9768 58.728C33.9857 58.7725 34.0838 59.0398 34.1907 59.3071L34.3779 59.7881L34.0838 60.0376C33.9233 60.1801 33.4776 60.4384 33.1033 60.6255C32.4704 60.9284 32.4169 60.973 32.408 61.2224V61.4986L35.5278 61.5075L38.6477 61.5164V61.2046C38.6477 60.9551 38.6209 60.9017 38.505 60.9462C38.4337 60.973 38.3892 60.9641 38.4159 60.9284C38.4426 60.8839 38.3268 60.8037 38.1574 60.7413C37.7206 60.5899 37.266 60.0376 37.1412 59.5209C37.0432 59.1022 37.0521 59.0309 37.3997 58.0599C37.6047 57.4986 37.783 56.9908 37.7919 56.9463C37.8098 56.8928 37.8632 56.7325 37.9256 56.5899C37.988 56.4385 38.1485 56.002 38.2822 55.61C38.6833 54.4786 39.8867 51.1111 40.0739 50.6212C40.3948 49.7927 41.2416 47.4141 41.2683 47.2805C41.2862 47.2092 41.3575 47.0043 41.4377 46.8261C41.5179 46.6569 41.6071 46.4074 41.6338 46.2738C41.6873 46.06 41.7408 46.0332 42.0706 46.0243C42.2667 46.0243 42.8817 46.0154 43.4344 46.0065C43.9781 45.9976 44.406 45.962 44.3882 45.9263C44.3703 45.8907 44.4238 45.8729 44.5219 45.8818C44.6199 45.8818 44.6734 45.9263 44.6556 45.962C44.5843 46.0778 44.8428 46.0422 44.9587 45.9263C45.0389 45.8462 45.0656 45.8462 45.0656 45.9263C45.0656 46.0422 45.44 46.0778 45.547 45.9709C45.6539 45.864 46.064 45.8373 46.0016 45.9442C45.9213 46.0689 46.2512 46.06 46.3938 45.9174C46.4918 45.8284 46.5097 45.8284 46.4562 45.9174C46.4116 45.9976 46.4651 46.0332 46.6166 46.0332C46.7414 46.0332 46.8484 45.9798 46.8484 45.9174C46.8484 45.8373 46.8662 45.8373 46.9286 45.9263C47.0088 46.06 47.3921 46.0422 47.4991 45.8996C47.5347 45.8462 47.5882 45.8462 47.6328 45.9174C47.6774 45.9887 47.8646 46.0154 48.1855 45.9976C48.4529 45.9709 48.6757 45.9531 48.6757 45.9442C48.6757 45.9353 48.747 45.9174 48.8362 45.8996C48.9342 45.8818 48.9699 45.9085 48.9253 45.9709C48.8807 46.0422 48.9075 46.0422 49.0055 45.9709C49.0768 45.9085 49.166 45.8818 49.1927 45.9085C49.2908 46.0065 49.8791 46.0065 49.8791 45.9085C49.8791 45.8551 49.9237 45.8729 49.9682 45.9442C50.0484 46.06 50.0574 46.06 50.0574 45.9442C50.0574 45.8284 50.0663 45.8284 50.1465 45.9442C50.2178 46.0511 50.2356 46.0511 50.2356 45.9531C50.2356 45.8551 50.2624 45.8551 50.3604 45.9353C50.5031 46.0511 51.3677 46.0243 51.5727 45.8996C51.6529 45.8551 51.6708 45.864 51.6262 45.9263C51.5816 45.9976 51.6351 46.0332 51.7688 46.0332C51.9293 46.0332 51.9471 46.0154 51.8401 45.9442C51.7332 45.8818 51.751 45.864 51.9025 45.8818C52.0095 45.8818 52.0719 45.9263 52.0541 45.962C52.0273 45.9976 52.0541 46.0332 52.0986 46.0332C52.1521 46.0332 52.1967 45.9798 52.1967 45.9174C52.1967 45.8462 52.2234 45.8373 52.268 45.9085C52.3393 46.0243 54.9867 46.0867 55.1561 45.9709C55.3165 45.8729 55.4413 45.8818 55.5126 45.9887C55.5572 46.0422 55.5839 46.0422 55.5839 45.962C55.5839 45.9085 55.682 45.8551 55.8068 45.8551C55.9316 45.8551 56.0296 45.8907 56.0296 45.9442C56.0296 45.9887 56.2079 46.0332 56.4307 46.0332C56.6893 46.0332 56.8319 45.9976 56.8319 45.9174C56.8319 45.8551 56.8586 45.8462 56.9032 45.8996C56.9834 46.0154 57.2152 46.0689 57.1528 45.9531C57.126 45.9085 57.1973 45.8818 57.3132 45.8907C57.4291 45.8907 57.5093 45.9353 57.4826 45.9709C57.4558 46.0065 57.7678 46.0332 58.16 46.0243C58.9266 45.9976 59.1138 46.0778 59.194 46.443C59.2297 46.6212 59.8091 48.0644 59.9428 48.3317C59.9874 48.4118 60.4331 49.4809 60.9322 50.7103C61.4314 51.9307 61.8949 53.0532 61.9662 53.2047C62.403 54.1846 63.6688 57.4541 63.8916 58.1935C64.2036 59.2536 64.2393 60.0197 63.9897 60.3672C63.8916 60.4919 63.651 60.679 63.4459 60.777C63.1072 60.9373 63.0626 60.9819 63.0894 61.2224L63.1161 61.4897L66.6906 61.4986L70.2739 61.5075L70.265 61.2135C70.2561 60.9551 70.2026 60.9017 69.8282 60.7235C68.9279 60.3048 68.0009 59.1912 67.1897 57.5699C67.0115 57.2224 66.8332 56.9196 66.7797 56.8839C66.7262 56.8483 66.7084 56.8126 66.744 56.8126C66.7797 56.8126 66.6727 56.5187 66.5034 56.1623C66.3429 55.8149 65.8972 54.7815 65.5229 53.8728C65.1396 52.9641 64.8097 52.1802 64.783 52.1356C64.7474 52.0822 64.7206 52.002 64.7117 51.9575C64.685 51.8149 63.4905 48.9375 63.437 48.884C63.4103 48.8573 63.3746 48.7771 63.3568 48.7058C63.3211 48.5098 62.2515 45.9085 62.1891 45.8551C62.1623 45.8284 62.1178 45.7304 62.1089 45.6324C62.091 45.5433 62.0019 45.3027 61.9128 45.0978C61.8236 44.9019 61.4403 43.9754 61.057 43.0489C60.6826 42.1135 60.3439 41.3384 60.3172 41.3117C60.2904 41.285 60.2548 41.1959 60.237 41.0979C60.2191 41.0088 60.1122 40.7148 59.9874 40.4565C59.8715 40.1981 59.7734 39.9398 59.7734 39.8952C59.7734 39.8418 59.7289 39.7972 59.6665 39.7972C59.613 39.7972 59.5862 39.7705 59.6219 39.7438C59.6754 39.6903 59.5149 39.236 59.1406 38.4164C59.0336 38.167 58.9355 37.9264 58.9266 37.8819C58.8821 37.7037 58.4988 36.8129 58.4185 36.7238C58.3829 36.6792 58.3472 36.5901 58.3472 36.5278C58.3472 36.4654 58.2492 36.1982 58.1244 35.9309C57.9996 35.6636 57.9015 35.3964 57.9015 35.3518C57.9015 35.2984 57.8659 35.2538 57.8302 35.2538C57.7857 35.2538 57.75 35.2004 57.75 35.1291C57.75 34.9955 56.4753 31.8508 56.3951 31.7795C56.3684 31.7528 56.3238 31.6548 56.3149 31.5568C56.297 31.4588 56.2168 31.2628 56.1366 31.1114C56.0564 30.9688 55.9851 30.7996 55.9761 30.755C55.9672 30.6659 54.6212 27.3787 54.3806 26.8352C54.3093 26.6838 53.9349 25.7662 53.5338 24.7863C53.1326 23.8063 52.7493 22.862 52.6691 22.6927C52.5978 22.5235 52.4819 22.2473 52.4106 22.0869C52.2947 21.8108 52.2947 21.793 52.5087 21.695C52.7404 21.5881 52.883 21.2674 52.7761 21.0981C52.6959 20.9645 52.5265 20.9734 52.6067 21.107C52.6602 21.1961 52.6424 21.1961 52.5443 21.107C52.4552 21.0268 51.7153 21.0001 49.5047 21.0001H46.5721L46.5988 21.303C46.6166 21.5524 46.6612 21.6237 46.8484 21.6682C47.2049 21.7573 47.7041 22.1226 47.9002 22.4433C48.3013 23.0847 48.3816 24.1448 48.1409 25.3208C47.8824 26.5412 47.7933 26.8352 46.893 29.3385C46.4829 30.4788 46.1353 31.4766 46.1175 31.5657C46.0996 31.6637 46.064 31.7528 46.0372 31.7795C45.9748 31.8329 45.5559 33.0267 45.5559 33.1603C45.5559 33.2049 45.5291 33.2672 45.4935 33.294C45.4578 33.3207 45.4133 33.4276 45.3954 33.5167C45.3865 33.6147 45.3419 33.7394 45.3063 33.7928C45.1904 33.9799 44.4506 36.1447 44.504 36.1447C44.5308 36.1447 44.513 36.1982 44.4595 36.2605C44.3436 36.3941 43.7196 38.1046 43.782 38.1046C43.7999 38.1046 43.7642 38.1937 43.684 38.3095C43.6127 38.4164 43.5414 38.5946 43.5235 38.6837C43.5057 38.7817 43.4433 38.9687 43.3898 39.0935C43.1135 39.7705 42.7659 40.8574 42.8104 40.9019C42.8461 40.9286 42.8193 40.9554 42.7659 40.9554C42.7035 40.9554 42.6589 40.9999 42.6589 41.0444C42.6589 41.1692 41.402 44.5099 41.1079 45.1691C40.9831 45.4542 40.885 45.7125 40.8939 45.7482C40.9029 45.7838 40.8048 46.0243 40.6711 46.2916C40.5463 46.5589 40.4572 46.8083 40.4839 46.8528C40.5107 46.8885 40.4928 46.9241 40.4483 46.9241C40.3769 46.9241 40.27 47.1735 40.2165 47.4586C40.2076 47.4854 40.1808 47.5477 40.1452 47.5923C40.0739 47.7081 39.3519 49.5165 39.3251 49.6412C39.3162 49.6858 39.2627 49.8105 39.2092 49.9085C39.1558 50.0065 38.7814 50.9063 38.3892 51.9129C37.988 52.9196 37.6226 53.8194 37.578 53.9174C37.0877 55.0844 36.5083 56.4029 36.437 56.5098C36.3925 56.5899 36.3479 56.581 36.2588 56.4919C36.1964 56.4296 36.1607 56.3494 36.1696 56.3316C36.2053 56.2692 35.8576 55.3873 35.7952 55.3873C35.7685 55.3873 35.7328 55.2982 35.7328 55.1913C35.7239 55.0755 35.6704 54.9775 35.617 54.9597C35.5724 54.9418 35.5278 54.8617 35.5278 54.7815C35.5278 54.6657 33.1478 48.8751 32.5595 47.5477C32.4615 47.325 32.3723 47.1023 32.3634 47.0488C32.3456 46.9954 32.2743 46.8083 32.203 46.6479C32.1227 46.4787 31.472 44.9197 30.7589 43.1825C30.0369 41.4453 29.3951 39.8952 29.3327 39.7527C29.2614 39.6012 29.0296 39.0311 28.7979 38.4788L28.3878 37.4721L28.7979 36.3407C29.0207 35.7171 29.2168 35.1469 29.2257 35.0757C29.2436 35.0044 29.2971 34.8619 29.3505 34.7639C29.3951 34.6659 29.609 34.0957 29.8141 33.4989C30.0191 32.8931 30.2508 32.2606 30.3221 32.0913C30.3935 31.922 30.4202 31.7795 30.3935 31.7795C30.3578 31.7795 30.3756 31.726 30.4291 31.6637C30.4737 31.6102 30.7411 30.9332 31.0085 30.176C32.4347 26.1671 32.3812 26.3007 33.0052 25.0535C33.5222 24.0201 34.0481 23.2005 34.4671 22.7818C34.6543 22.5947 34.788 22.4166 34.7612 22.3898C34.7434 22.3631 34.7523 22.3542 34.7791 22.3809C34.8147 22.3987 34.9662 22.3186 35.1178 22.2028C35.4119 21.98 36.2409 21.5792 36.3479 21.6059C36.3835 21.6148 36.3925 21.5079 36.3746 21.3743C36.3568 21.2406 36.339 21.107 36.339 21.0625C36.3301 21.0268 35.0376 21.009 33.4598 21.0179L30.5896 21.0446L30.5539 21.3475C30.5272 21.6148 30.545 21.6415 30.7054 21.597C30.8124 21.5702 30.8748 21.5792 30.8481 21.6237C30.8302 21.6593 30.9639 21.793 31.1511 21.9177C31.3383 22.0424 31.5612 22.2918 31.6592 22.4878C31.891 22.9689 31.9355 24.2161 31.7394 25.2406C31.5968 26.0156 30.9283 28.1359 30.2954 29.8196C30.126 30.2829 29.9745 30.7016 29.9567 30.755C29.9478 30.7996 29.9121 30.9065 29.8854 30.9777C29.7338 31.3252 29.0118 33.3563 28.9851 33.4721C28.9762 33.5434 28.9048 33.7483 28.8246 33.9176C28.7087 34.2026 28.3789 35.1113 28.3433 35.2717C28.3344 35.3162 28.3165 35.3608 28.3076 35.3875C28.2987 35.4142 28.2809 35.4587 28.272 35.4944C28.2007 35.824 27.7371 36.6169 27.7817 36.3407C27.8174 36.1269 27.7639 35.9665 27.6658 36.02C27.6034 36.0556 27.5945 36.0467 27.6302 35.9844C27.6658 35.922 27.6034 35.6904 27.4965 35.4587C27.2736 34.9777 27.2914 35.0222 27.2023 34.6926C27.1577 34.559 27.1043 34.4521 27.0686 34.4521C27.0329 34.4521 26.9973 34.3986 26.9973 34.3363C26.9973 34.2294 25.4195 30.363 25.2502 30.0423C25.1967 29.9443 25.1432 29.8463 25.1432 29.8196C25.1165 29.6949 24.9649 29.3029 24.7599 28.8575C24.6351 28.5724 24.5282 28.3051 24.5103 28.2517C24.5014 28.1893 24.3499 27.833 24.1805 27.4499C23.7348 26.4522 23.5565 26.0424 23.5387 25.9444C23.512 25.8464 23.1643 24.9199 23.0217 24.5635C22.9682 24.4388 22.9237 24.2874 22.9058 24.2161C22.8969 24.1537 22.8345 23.9043 22.781 23.6727C22.7276 23.4411 22.6741 23.058 22.6652 22.8175C22.6473 22.4522 22.6919 22.3364 22.9058 22.0959C23.0485 21.9355 23.298 21.7662 23.4585 21.7128C23.7883 21.597 23.824 21.5435 23.6546 21.3653C23.5655 21.2674 23.5655 21.2495 23.6546 21.303C23.7259 21.3475 23.7616 21.303 23.7616 21.1872C23.7616 21.009 23.7259 21.009 20.2673 21.0268L16.7642 21.0446L16.7375 21.3119C16.7107 21.5524 16.7553 21.597 17.1742 21.793C17.8517 22.0959 18.7163 23.0134 19.376 24.1359C20.1336 25.4099 20.6774 26.6303 22.9148 32.0557C23.9844 34.6213 24.8936 36.7772 24.9382 36.8307C24.9917 36.893 25.0095 36.9465 24.9828 36.9465C24.9471 36.9465 25.0452 37.2137 25.1789 37.5434C25.3215 37.8819 25.5978 38.5322 25.7939 38.9955L26.1416 39.8507L25.9009 40.4654C25.7672 40.8128 25.6691 41.1157 25.6959 41.1513C25.7137 41.1959 25.6959 41.2226 25.6602 41.2226C25.6156 41.2226 25.5265 41.3741 25.4641 41.5522C25.3928 41.7393 25.2769 42.0511 25.1878 42.2471C25.0986 42.4431 24.7777 43.227 24.4747 43.9843C24.1805 44.7415 23.8774 45.4809 23.8061 45.6324C23.7437 45.7749 23.7081 45.9263 23.7259 45.962C23.7527 45.9976 23.7348 46.0332 23.6992 46.0332C23.6368 46.0332 23.2891 46.835 23.2713 47.0132C23.2713 47.0399 23.2446 47.0934 23.2089 47.1468C23.1465 47.2537 20.6239 53.4363 20.5972 53.561C20.5882 53.6056 20.4902 53.8461 20.3921 54.0777C20.2852 54.3182 20.196 54.541 20.196 54.5677C20.196 54.6033 20.1426 54.728 20.0802 54.8528C20.0178 54.9775 19.8306 55.414 19.6701 55.8327C19.5097 56.2514 19.3225 56.7147 19.2601 56.8572C19.1888 57.0086 19.0907 57.2403 19.0372 57.3828C18.8946 57.7748 18.9481 57.8995 17.7447 54.6746C17.3704 53.6679 16.996 52.7058 16.9247 52.5365C16.8444 52.3673 16.7731 52.1713 16.7553 52.1178C16.7018 51.8595 15.2578 48.109 15.1508 47.9308C15.0795 47.8239 15.026 47.6724 15.026 47.6101C15.026 47.5388 14.9547 47.325 14.8745 47.1379C14.7943 46.9419 14.7229 46.7459 14.7051 46.7014C14.6784 46.5589 13.8583 44.4208 13.7246 44.1179C13.6533 43.9665 13.5641 43.7259 13.5196 43.5834C13.377 43.129 12.8956 41.8373 12.8243 41.7304C12.7886 41.668 12.753 41.579 12.7441 41.5344C12.7173 41.4008 10.48 35.5033 10.4087 35.3964C10.3819 35.3429 10.3373 35.2182 10.3284 35.1202C10.3106 35.0311 10.2571 34.9242 10.2036 34.8886C10.1501 34.8619 10.1145 34.8084 10.1145 34.7728C10.1323 34.6124 9.99861 34.1848 9.93622 34.1848C9.89165 34.1848 9.85599 34.1136 9.85599 34.0334C9.85599 33.8641 8.01083 28.9377 7.89495 28.7951C7.85038 28.7417 7.81473 28.6615 7.81473 28.6169C7.7969 28.4655 7.60971 27.9132 7.48491 27.6815C7.38686 27.4856 7.26207 27.1827 7.22641 27.0579C7.16402 26.7996 6.78964 25.7573 6.74507 25.7217C6.71833 25.6949 6.68267 25.5791 6.66484 25.4544C6.65593 25.3297 6.60245 25.2139 6.55788 25.205C6.50439 25.1871 6.48657 25.1426 6.50439 25.107C6.53114 25.0713 6.46874 24.7684 6.37069 24.4299C6.1211 23.5212 6.09436 23.3965 6.11219 22.9689C6.1211 22.568 6.39743 21.8375 6.53114 21.8553C6.71833 21.8642 7.09271 21.6593 7.05705 21.5613C7.03031 21.499 7.05705 21.4277 7.11053 21.3921C7.16402 21.3564 7.18184 21.3653 7.14619 21.4277C7.11945 21.4812 7.12836 21.5435 7.16402 21.5702C7.20859 21.597 7.24424 21.4901 7.23533 21.3297L7.22641 21.0446L3.98178 21.0179C1.47699 21.0001 0.710405 21.0268 0.603439 21.107C0.487559 21.1961 0.478645 21.1961 0.532128 21.107C0.576697 21.0357 0.532128 21.0001 0.380593 21.0001C0.264713 21.0001 0.13992 21.0268 0.113178 21.0625ZM50.5565 25.6504C50.7437 26.1047 50.922 26.4967 50.9487 26.5234C50.9755 26.5502 51.0022 26.6303 51.0201 26.7016C51.0468 26.8441 51.7956 28.6793 52.2412 29.686C52.3036 29.8285 52.7048 30.8174 53.1326 31.8686C53.5605 32.9198 53.9438 33.8374 53.9794 33.9176C54.024 33.9888 54.5856 35.3518 55.2363 36.9465C55.8781 38.5411 56.4842 40.0021 56.5734 40.1981C57.0458 41.2761 58.6146 45.1691 58.5879 45.2048C58.5612 45.2226 57.8926 45.2404 57.0904 45.2404C56.1277 45.2493 55.5839 45.2849 55.5037 45.3473C55.3967 45.4275 55.3878 45.4275 55.4413 45.3384C55.477 45.2849 55.4591 45.2315 55.4146 45.2315C55.3611 45.2315 55.3165 45.2849 55.3076 45.3384C55.3076 45.4275 55.2898 45.4275 55.2541 45.3384C55.2363 45.2849 55.1739 45.2315 55.1293 45.2315C55.0758 45.2315 55.058 45.2671 55.0848 45.3027C55.1115 45.3473 55.0758 45.3829 55.0045 45.3829C54.9332 45.3829 54.8976 45.3473 54.9243 45.3027C54.9511 45.2671 54.8084 45.2315 54.6034 45.2315C54.3984 45.2315 54.2558 45.2671 54.2825 45.3027C54.3093 45.3473 54.2736 45.3829 54.2023 45.3829C54.131 45.3829 54.0953 45.3473 54.1221 45.3117C54.1845 45.2137 51.7421 45.2582 51.5816 45.3562C51.4925 45.4186 51.4747 45.4007 51.5281 45.3295C51.6084 45.1958 51.1538 45.2137 50.9755 45.3473C50.9042 45.4007 50.8596 45.4007 50.8596 45.3473C50.8596 45.2048 48.444 45.1958 48.3548 45.3384C48.2924 45.4275 48.2746 45.4275 48.2746 45.3206C48.2746 45.2048 48.2657 45.2048 48.1855 45.3206C48.132 45.4096 48.0963 45.4186 48.0963 45.3384C48.0963 45.276 47.9626 45.2315 47.7398 45.2315C47.5169 45.2315 47.3832 45.276 47.3743 45.3384C47.3743 45.4275 47.3565 45.4275 47.3208 45.3384C47.303 45.2849 47.2228 45.2315 47.1515 45.2315C47.0801 45.2315 47.0267 45.2849 47.0267 45.3384C47.0267 45.4275 47.0088 45.4275 46.9553 45.3473C46.9108 45.2849 46.6612 45.2493 46.2512 45.2582C45.9035 45.2671 45.6361 45.3027 45.6539 45.3384C45.6985 45.4096 45.4489 45.374 45.3687 45.3027C45.3419 45.2671 44.5932 45.2404 43.7018 45.2315C42.8193 45.2315 42.0795 45.2137 42.0617 45.1958C42.0438 45.178 42.1508 44.8573 42.2934 44.4742C42.445 44.0912 42.543 43.7437 42.5163 43.7081C42.4895 43.6636 42.5073 43.6279 42.5519 43.6279C42.6143 43.6279 42.8728 43.0132 42.8817 42.8262C42.8906 42.7994 42.9263 42.7014 42.9798 42.6034C43.0778 42.4253 44.0851 39.8685 44.1208 39.7081C44.1297 39.6814 44.1742 39.5834 44.2277 39.4854C44.2812 39.3874 44.4595 38.9687 44.6199 38.55C44.7804 38.1313 44.9587 37.6681 45.021 37.5255C45.0834 37.3741 45.2082 37.0801 45.2885 36.8574C45.3776 36.6347 45.4935 36.3318 45.5559 36.1893C45.7966 35.6369 49.1927 27.1916 49.2016 27.1025C49.2105 27.0579 49.264 26.9332 49.3086 26.8352C49.5849 26.3185 49.9771 25.1782 49.9147 25.0891C49.8791 25.0268 49.888 25.009 49.9415 25.0357C49.995 25.0713 50.0574 25.0357 50.093 24.9644C50.1198 24.8932 50.1554 24.8308 50.1732 24.8308C50.1911 24.8308 50.3693 25.205 50.5565 25.6504ZM46.0729 45.6502C45.9124 45.668 45.645 45.668 45.4935 45.6502C45.333 45.6324 45.4578 45.6145 45.7787 45.6145C46.0996 45.6145 46.2244 45.6324 46.0729 45.6502ZM47.4545 45.6502C47.3119 45.668 47.098 45.668 46.9643 45.6502C46.8216 45.6324 46.9375 45.6145 47.2049 45.6145C47.4724 45.6145 47.5882 45.6324 47.4545 45.6502ZM53.3377 45.7393C53.2485 45.7571 53.1059 45.7571 53.0257 45.7393C52.9365 45.7125 53.0078 45.6947 53.1772 45.6947C53.3466 45.6947 53.4179 45.7125 53.3377 45.7393Z" fill="#115A70"/>
<path d="M0.505383 68.4989C0.567779 68.6148 0.612349 68.7306 0.603435 68.7751C0.56778 68.8998 0.87085 69.9956 0.94216 69.9956C0.98673 69.9956 1.00456 70.0669 0.995643 70.147C0.977816 70.2361 1.00456 70.4232 1.04913 70.5746C1.0937 70.7172 1.14718 70.9221 1.17392 71.0201C1.44133 72.2138 1.53047 72.4454 1.74441 72.4454C1.94051 72.4454 1.98508 72.3564 2.28815 71.3319C2.47534 70.7261 2.60905 70.2094 2.59122 70.1827C2.57339 70.1648 2.61796 70.0312 2.68927 69.8887C2.76058 69.7461 2.79624 69.5947 2.7695 69.5502C2.74275 69.5056 2.76058 69.4522 2.81406 69.4165C2.86755 69.3809 2.88538 69.3274 2.85863 69.2918C2.84081 69.2473 2.87646 69.1404 2.93886 69.0513C3.05474 68.8998 3.07257 68.9087 3.12605 69.2205C3.1617 69.3987 3.2241 69.5502 3.26867 69.5502C3.31324 69.5502 3.31324 69.6214 3.2865 69.7016C3.24193 69.8174 3.25976 69.8352 3.40238 69.7818C3.53608 69.7372 3.545 69.7461 3.46477 69.8263C3.41129 69.8798 3.37564 69.9778 3.39346 70.0312C3.41129 70.0847 3.49152 70.3608 3.57174 70.6459C3.65196 70.931 3.75002 71.1359 3.78567 71.1092C3.83024 71.0824 3.84807 71.1448 3.82133 71.2428C3.79459 71.3408 3.79459 71.4833 3.83024 71.5546C3.85698 71.6259 3.88372 71.706 3.88372 71.7328C3.88372 71.7595 3.93721 71.9109 4.00852 72.0802C4.07983 72.2495 4.11548 72.4098 4.07983 72.4365C4.05309 72.4633 4.13331 72.49 4.26702 72.49C4.50769 72.49 4.57009 72.3742 4.76619 71.5546C4.81076 71.3586 5.00687 70.6103 5.20297 69.8798C5.39908 69.1582 5.5417 68.5702 5.51496 68.5702C5.48821 68.5702 5.51496 68.5078 5.57735 68.4366C5.6754 68.3208 5.64866 68.303 5.45256 68.303C5.19406 68.303 5.11383 68.4366 5.096 68.8464C5.08709 68.9889 5.06035 69.1047 5.03361 69.1047C4.94447 69.1047 4.66814 70.4321 4.73945 70.539C4.77511 70.6014 4.76619 70.6192 4.7038 70.5836C4.59683 70.5212 4.47204 70.9933 4.47204 71.4388C4.47204 71.5724 4.43638 71.6526 4.3829 71.6259C4.33833 71.5902 4.3205 71.6348 4.35616 71.7149C4.3829 71.804 4.37399 71.8664 4.32942 71.8664C4.27593 71.8664 4.24028 71.8218 4.24028 71.7684C4.24028 71.7239 4.18679 71.706 4.13331 71.7417C4.04417 71.7951 4.04417 71.7862 4.1244 71.6793C4.20462 71.5813 4.16005 71.3408 3.91938 70.5746C3.75002 70.0312 3.59848 69.5323 3.58065 69.4611C3.56283 69.3898 3.49152 69.3363 3.42912 69.3542C3.33107 69.3809 3.33107 69.3631 3.40238 69.2829C3.50934 69.176 3.40238 68.6415 3.23301 68.4099C3.12605 68.2762 2.7695 68.303 2.76058 68.4366C2.76058 68.4811 2.73384 68.588 2.69818 68.6593C2.67144 68.7306 2.61796 68.9087 2.5823 69.0602C2.54665 69.2027 2.51099 69.3453 2.50208 69.372C2.49317 69.3987 2.3862 69.7551 2.25249 70.1738C2.1277 70.5925 1.95834 71.1537 1.88703 71.421C1.81572 71.6882 1.75332 71.8397 1.75332 71.7506C1.74441 71.6615 1.71766 71.608 1.68201 71.6259C1.63744 71.6526 1.60178 71.4833 1.59287 71.2606C1.58396 71.0379 1.53939 70.833 1.50373 70.8063C1.46808 70.7795 1.42351 70.637 1.41459 70.4856C1.40568 70.343 1.3522 70.2094 1.30763 70.1916C1.26306 70.1738 1.23632 70.1114 1.25414 70.0579C1.28089 69.9956 1.20066 69.5858 1.0937 69.1493C0.897591 68.4009 0.87085 68.3475 0.63909 68.3208C0.407331 68.294 0.398417 68.303 0.505383 68.4989Z" fill="#115A70"/>
<path d="M8.3395 68.4292C8.17013 68.4916 8.03643 68.5807 8.04534 68.643C8.06317 68.6965 8.0186 68.7232 7.94729 68.6965C7.79575 68.643 7.51051 69.035 7.3768 69.4626C7.22527 69.9615 7.16287 70.5495 7.26984 70.4871C7.32332 70.4515 7.33223 70.5316 7.30549 70.7098C7.22527 71.084 7.46594 71.6808 7.84924 72.0461C8.0186 72.2154 8.16122 72.3134 8.16122 72.2599C8.16122 72.2154 8.19688 72.2243 8.23253 72.2777C8.26819 72.3312 8.39298 72.4113 8.50886 72.447C8.66931 72.5004 8.70496 72.4826 8.64257 72.3935C8.58908 72.2955 8.598 72.2866 8.70496 72.3757C8.81193 72.4648 8.86541 72.4648 8.96347 72.3757C9.0526 72.2955 9.06152 72.2955 9.01695 72.3846C8.96347 72.4737 9.04369 72.4915 9.40024 72.4648C9.89942 72.4203 10.3808 72.1619 10.6125 71.8145C10.8175 71.5027 11.0315 70.7811 10.8978 70.8613C10.8354 70.8969 10.8443 70.8523 10.9156 70.7722C11.1652 70.4693 10.9067 69.2933 10.4877 68.8034C10.0866 68.349 9.09717 68.1709 8.3395 68.4292ZM9.70331 68.7143C9.99747 68.7766 10.3629 69.231 10.4432 69.623C10.4966 69.8724 10.5234 69.8991 10.6482 69.8011C10.773 69.6942 10.773 69.7031 10.6749 69.8368C10.6036 69.9169 10.568 70.1218 10.5769 70.2822C10.6125 70.7454 10.3986 71.467 10.1401 71.761C9.8905 72.0372 9.45373 72.1797 9.01695 72.1441C8.82976 72.1263 8.78519 72.153 8.83867 72.2332C8.87433 72.3044 8.7941 72.2688 8.6604 72.153C8.51777 72.0461 8.35732 71.957 8.28601 71.957C8.08991 71.957 7.81358 71.378 7.68879 70.7276C7.61748 70.3624 7.59965 70.1129 7.65313 70.1486C7.70662 70.1753 7.72444 70.0684 7.6977 69.8813C7.67987 69.7031 7.67987 69.5784 7.6977 69.5962C7.72444 69.623 7.80467 69.5071 7.88489 69.3557C8.06317 69.0083 8.40189 68.7499 8.7941 68.6697C9.09717 68.5985 9.22197 68.6074 9.70331 68.7143Z" fill="#115A70"/>
<path d="M13.1183 70.2812C13.1272 72.6331 13.1183 72.4905 13.2877 72.4905C13.4481 72.4905 13.4392 72.5351 13.457 71.564C13.4748 70.6732 13.5016 70.6375 14.1256 70.691C14.4108 70.7177 14.4999 70.7801 14.6336 71.0295C14.7495 71.2344 14.8476 71.3146 14.9367 71.2879C15.0348 71.2433 15.0437 71.2611 14.9724 71.3324C14.8208 71.4839 15.3557 72.3836 15.632 72.4549C15.7479 72.4905 15.8548 72.4905 15.8816 72.4638C15.9083 72.4371 15.6855 72.0184 15.3913 71.5284C14.8743 70.6999 14.7317 70.3614 14.9367 70.4861C14.9902 70.5217 15.1685 70.4059 15.3289 70.2456C15.5963 69.9783 15.632 69.8803 15.632 69.4972C15.6409 69.034 15.4448 68.6153 15.2754 68.7133C15.222 68.7489 15.2041 68.74 15.2398 68.6776C15.3557 68.4906 14.9456 68.3837 13.8225 68.3302L13.1094 68.2946L13.1183 70.2812ZM15.0437 68.8113C15.0972 68.8024 15.1417 68.8736 15.1596 68.9716C15.1685 69.0696 15.2041 69.2389 15.2398 69.3458C15.3289 69.6398 15.0793 70.1565 14.7852 70.2723C14.5534 70.3614 13.6085 70.3881 13.5283 70.3079C13.5016 70.2901 13.4838 69.9159 13.4748 69.4883L13.4659 68.7044L13.8225 68.6598C14.0186 68.6331 14.3484 68.6598 14.5623 68.7222C14.7763 68.7845 14.9902 68.8202 15.0437 68.8113Z" fill="#115A70"/>
<path d="M17.3447 68.4821C17.3447 68.6424 17.4071 68.6603 17.9687 68.6603H18.5927L18.6016 70.4598C18.6105 71.4576 18.6105 72.3128 18.6016 72.3662C18.5927 72.4197 18.6907 72.4642 18.8155 72.4642C18.9938 72.4642 19.0384 72.4286 19.0205 72.2326C19.0205 72.1079 19.0205 71.2527 19.0294 70.3262L19.0384 68.6603H19.7069C20.313 68.6603 20.3754 68.6424 20.3754 68.4821C20.3754 68.3217 20.3041 68.3128 18.8601 68.3128C17.4071 68.3039 17.3447 68.3128 17.3447 68.4821Z" fill="#115A70"/>
<path d="M22.2191 68.3649C22.2013 68.4095 22.1835 69.3449 22.1746 70.4585L22.1567 72.4896H22.3796H22.6024V71.4295C22.6024 70.7168 22.6381 70.3427 22.7094 70.2981C22.7629 70.2625 22.7807 70.2714 22.754 70.3248C22.7183 70.3783 23.0838 70.4139 23.7434 70.4317C24.3139 70.4406 24.7863 70.4585 24.7952 70.4674C24.8131 70.4763 24.8309 70.9306 24.8487 71.4651C24.8755 72.4005 24.8844 72.4451 25.0716 72.4718L25.2766 72.4985L25.2677 70.405V68.3026H25.0448C24.8487 68.3026 24.8309 68.3382 24.8309 68.7569C24.8309 69.1489 24.8487 69.2024 24.9824 69.1578C25.125 69.1044 25.125 69.1044 24.9824 69.2647C24.8933 69.3627 24.8309 69.5765 24.8309 69.7814V70.1288L23.8682 70.111C23.3423 70.1021 22.8431 70.0932 22.7629 70.0932C22.6203 70.0843 22.6024 69.9774 22.6024 69.1934C22.6024 68.3739 22.5935 68.3026 22.4331 68.3026C22.335 68.3026 22.2459 68.3293 22.2191 68.3649Z" fill="#115A70"/>
<path d="M27.1048 68.4544C27.1316 68.5435 27.4346 69.1315 27.7823 69.7551L28.3973 70.8954V71.6971C28.3973 72.4811 28.3973 72.49 28.6202 72.49C28.843 72.49 28.843 72.49 28.843 71.6259C28.843 70.833 28.8608 70.735 29.1193 70.2807C29.2709 70.0134 29.3689 69.7818 29.3422 69.7461C29.3154 69.7194 29.3511 69.6571 29.4135 69.6036C29.4848 69.5502 29.6898 69.2294 29.877 68.8998L30.2068 68.2851L29.9572 68.3208C29.7433 68.3475 29.6453 68.4811 29.1639 69.4343C28.8698 70.0312 28.5845 70.5212 28.5489 70.5212C28.5043 70.5301 28.4954 70.4945 28.5221 70.4588C28.5756 70.3697 28.0051 69.3542 27.9338 69.4165C27.9071 69.4522 27.8803 69.4165 27.8892 69.3542C27.8892 69.2918 27.8001 69.0245 27.6931 68.7662C27.5238 68.392 27.4435 68.303 27.2653 68.303C27.087 68.303 27.0513 68.3386 27.1048 68.4544Z" fill="#115A70"/>
<path d="M35.5199 68.5435C35.2169 69.3096 34.6196 70.8508 34.6018 70.931C34.584 70.9755 34.5127 71.1715 34.4235 71.3497C33.9868 72.3564 33.9511 72.49 34.1115 72.49C34.1561 72.49 34.1739 72.4365 34.1383 72.3742C34.0848 72.3029 34.1115 72.3029 34.2185 72.3831C34.3433 72.49 34.379 72.4633 34.5038 72.1782C34.5751 71.9911 34.6375 71.8308 34.6375 71.8129C34.6375 71.6882 35.0297 70.9755 35.101 70.9755C35.1456 70.9755 35.1545 71.0201 35.1188 71.0735C35.0832 71.1359 35.2258 71.1626 35.5823 71.1537C36.7055 71.1092 36.6342 71.0735 36.9194 71.8218C37.0977 72.2762 37.2136 72.4722 37.3116 72.4633C37.4631 72.4365 37.4988 72.3653 37.4542 72.2049C37.374 71.9287 37.0977 71.1715 36.9551 70.8419C36.8659 70.6459 36.6074 69.9956 36.3757 69.3898C36.0458 68.5168 35.93 68.303 35.7873 68.303C35.6804 68.303 35.5734 68.4009 35.5199 68.5435ZM35.8854 69.0691C35.8854 69.1404 35.9211 69.176 35.9745 69.1493C36.0191 69.1225 36.0369 69.1493 36.0102 69.2294C35.9835 69.3007 36.0102 69.4522 36.0726 69.568C36.135 69.6838 36.1974 69.853 36.2152 69.9421C36.233 70.0401 36.2776 70.1559 36.3222 70.2094C36.3667 70.2628 36.4202 70.4054 36.4381 70.5301C36.4648 70.7528 36.4559 70.7528 35.7784 70.7795C35.3951 70.7974 35.0832 70.7706 35.0832 70.7261C35.0832 70.6905 35.1812 70.4054 35.2971 70.1025C35.4219 69.7996 35.4932 69.5502 35.4665 69.5502C35.4397 69.5502 35.4665 69.4967 35.5199 69.4254C35.5823 69.3542 35.6091 69.176 35.5912 69.0245C35.5467 68.7751 35.5645 68.7573 35.716 68.8375C35.8052 68.8909 35.8854 68.9978 35.8854 69.0691Z" fill="#115A70"/>
<path d="M39.4227 68.3665C39.3871 68.3933 39.3604 69.3465 39.3604 70.469L39.3693 72.5179L40.1983 72.4734C41.1877 72.4199 41.8919 72.1883 41.8206 71.93C41.7938 71.8142 41.8117 71.7874 41.8919 71.8587C41.9721 71.9211 42.0434 71.8943 42.1593 71.7607C42.6317 71.2084 42.7209 70.1126 42.3465 69.3465C42.088 68.8209 41.7225 68.5358 41.1431 68.4022C40.6885 68.2953 39.5119 68.2685 39.4227 68.3665ZM41.0718 68.7496C41.5175 68.8743 41.9097 69.2218 42.0345 69.5959C42.0969 69.8008 42.1771 69.8899 42.2395 69.8454C42.3197 69.8008 42.3197 69.8186 42.2484 69.9166C42.2039 69.9879 42.1504 70.2552 42.1415 70.5224C42.1147 71.1549 41.8295 71.6627 41.366 71.9122C41.1699 72.0102 40.947 72.0814 40.8579 72.0636C40.7777 72.0458 40.6974 72.0725 40.6707 72.1081C40.6439 72.1527 40.4122 72.1616 40.1626 72.1349L39.6991 72.0903V70.5759C39.6991 69.7385 39.708 68.9723 39.708 68.8565C39.7169 68.6783 39.7615 68.6605 40.2339 68.6605C40.5102 68.6605 40.8935 68.7051 41.0718 68.7496Z" fill="#115A70"/>
<path d="M44.2186 68.455C44.2364 68.5441 44.2542 68.6688 44.2542 68.7312C44.2631 68.7936 44.2988 68.8203 44.3523 68.7936C44.4058 68.7668 44.4147 68.8025 44.3879 68.8737C44.3612 68.9539 44.3701 69.0163 44.4147 69.0163C44.4592 69.0163 44.4949 69.1054 44.5038 69.2123C44.5305 69.4973 45.1723 71.2791 45.2793 71.3503C45.3328 71.386 45.3506 71.4216 45.315 71.4216C45.2437 71.4216 45.5022 72.2234 45.627 72.3748C45.6983 72.4728 46.0459 72.5441 46.0459 72.4639C46.0459 72.455 46.1885 72.0541 46.3579 71.5641C46.5272 71.0831 46.6431 70.6376 46.6075 70.5842C46.5807 70.5307 46.5896 70.5218 46.6253 70.5575C46.6877 70.6109 47.3473 68.9895 47.4186 68.6154C47.4275 68.5619 47.4632 68.4728 47.4989 68.4105C47.5523 68.3392 47.5078 68.3036 47.3384 68.3036C47.071 68.3036 47.1245 68.2056 46.4025 70.2902C46.1172 71.1187 45.8944 71.8937 45.9122 72.0096C45.9211 72.1343 45.9033 72.2055 45.8587 72.161C45.7963 72.0897 45.7339 71.8759 45.627 71.3058C45.5913 71.1276 45.5467 71.0831 45.4665 71.1543C45.3952 71.2167 45.3595 71.1989 45.3595 71.1098C45.3595 71.0385 45.3952 70.9762 45.4308 70.9762C45.4754 70.9762 45.3595 70.5842 45.1902 70.1031C45.0208 69.631 44.8069 69.0252 44.7356 68.7668C44.6197 68.3838 44.5573 68.3036 44.3879 68.3036C44.2453 68.3036 44.2007 68.3481 44.2186 68.455Z" fill="#115A70"/>
<path d="M49.281 70.3794C49.2899 72.3749 49.2988 72.464 49.4682 72.4551C49.6019 72.4462 49.6465 72.3749 49.6554 72.0631C49.6643 71.8582 49.6376 71.6889 49.593 71.6889C49.5484 71.6889 49.5484 71.6177 49.6019 71.5286C49.7178 71.3059 49.7089 70.0854 49.5752 70.0854C49.5128 70.0854 49.5128 70.0587 49.5663 70.0141C49.7089 69.9161 49.7267 69.5331 49.593 69.4529C49.4949 69.3905 49.4949 69.3727 49.6019 69.3727C49.7 69.3727 49.7 69.346 49.6019 69.2212C49.5039 69.1054 49.5039 69.0876 49.593 69.1411C49.6821 69.1945 49.7 69.1143 49.6821 68.7758C49.6554 68.4106 49.6287 68.3482 49.4593 68.3215L49.2632 68.2948L49.281 70.3794Z" fill="#115A70"/>
<path d="M52.3051 68.4547C51.9218 68.6417 51.7257 69.0159 51.797 69.4435C51.8861 70.0315 52.0288 70.1562 53.2232 70.6729C53.4193 70.7531 53.6065 70.8154 53.6511 70.8154C53.6867 70.8065 53.7135 70.8511 53.7135 70.9223C53.7135 70.9936 53.767 71.1094 53.8294 71.1718C53.9542 71.2965 53.9898 71.7063 53.8739 71.635C53.8383 71.6083 53.8026 71.6439 53.8026 71.7152C53.8026 71.8934 53.1608 72.223 52.9291 72.1606C52.7954 72.1339 52.733 72.1517 52.733 72.2319C52.733 72.321 52.7151 72.3299 52.6617 72.2497C52.626 72.1963 52.4388 72.1339 52.2427 72.1161C52.0466 72.0983 51.8594 72.0448 51.8238 72.0003C51.7881 71.9468 51.7524 72.0181 51.7524 72.1428C51.7524 72.3388 51.797 72.3923 52.0466 72.4279C52.5279 72.5081 53.2856 72.4724 53.5798 72.3477C53.9274 72.2052 54.1948 71.9112 54.1057 71.7687C54.07 71.6974 54.079 71.6796 54.1413 71.7241C54.2216 71.7687 54.2483 71.6707 54.2483 71.3856C54.2483 71.154 54.2037 70.9758 54.1503 70.9758C54.1057 70.9758 54.079 70.9402 54.1057 70.8956C54.1859 70.7709 53.7581 70.4413 53.2767 70.2631C53.0271 70.1651 52.8221 70.1027 52.8221 70.1295C52.8221 70.1562 52.7151 70.076 52.5814 69.9513C52.4477 69.8266 52.3051 69.7286 52.2605 69.7286C52.2249 69.7286 52.1981 69.5593 52.216 69.3544C52.2338 69.0783 52.3051 68.9446 52.4923 68.8021C52.7597 68.6061 53.3124 68.5794 53.7581 68.7486C53.9542 68.8199 54.0255 68.8199 54.0879 68.7308C54.2037 68.5437 54.177 68.4992 53.8739 68.4012C53.4461 68.2676 52.6349 68.2943 52.3051 68.4547Z" fill="#115A70"/>
<path d="M57.0264 68.4916C56.6342 68.6876 56.242 69.133 56.3401 69.2845C56.3668 69.329 56.349 69.3735 56.2866 69.3735C56.2242 69.3735 56.2064 69.4003 56.2331 69.4359C56.2688 69.4626 56.2509 69.5428 56.1974 69.6052C56.0637 69.7655 56.0637 71.0929 56.1974 71.1374C56.2509 71.1553 56.2777 71.2087 56.2509 71.2533C56.1083 71.476 56.9908 72.4648 57.2404 72.3668C57.3117 72.3401 57.3652 72.3579 57.3652 72.4114C57.3652 72.5628 58.4526 72.4915 58.6488 72.3223C58.7646 72.2243 58.8003 72.2154 58.7468 72.3045C58.7022 72.3846 58.7735 72.3757 58.9607 72.2599C59.2816 72.0728 59.5401 71.761 59.6828 71.3691C59.8254 71.0038 59.8789 70.2911 59.7719 70.2199C59.7273 70.1931 59.6828 70.113 59.6828 70.0595C59.6828 69.9971 59.7184 70.0061 59.7808 70.0862C59.9234 70.3089 59.7719 69.5517 59.5936 69.1954C59.2905 68.5985 58.7468 68.3045 57.9535 68.3045C57.5791 68.3045 57.2938 68.3669 57.0264 68.4916ZM58.9429 68.839C58.9875 68.839 59.3084 69.6052 59.3708 69.8635C59.5401 70.5138 59.3529 71.3691 58.9518 71.7967C58.7646 72.0016 58.6131 72.0639 58.0337 72.1708C57.7485 72.2243 57.0799 71.957 56.8838 71.7076C56.5094 71.2354 56.4025 70.2911 56.6342 69.5072C56.8303 68.8479 57.7039 68.4827 58.524 68.7232C58.7468 68.7856 58.934 68.839 58.9429 68.839Z" fill="#115A70"/>
<path d="M62.0384 68.3655C61.9047 68.4635 61.9314 69.8978 62.0741 70.1472C62.1632 70.3165 62.1632 70.3432 62.0651 70.2987C61.9582 70.263 61.9404 70.459 61.9493 71.3766C61.9582 72.4456 61.9671 72.4991 62.1365 72.4724C62.2969 72.4456 62.3147 72.3744 62.3147 71.6439C62.3236 70.7708 62.3682 70.6194 62.6089 70.6639C62.6891 70.6817 62.8852 70.6996 63.0278 70.6996C63.2685 70.7085 63.3487 70.7976 63.8123 71.5815C64.2401 72.3031 64.356 72.4456 64.5432 72.4456C64.668 72.4456 64.766 72.4367 64.766 72.4189C64.766 72.4011 64.5164 71.9824 64.2134 71.4835C63.8301 70.8599 63.6964 70.5748 63.7766 70.5481C63.839 70.5303 64.0173 70.3967 64.1688 70.263C64.4095 70.0492 64.4541 69.9512 64.4719 69.5058C64.4808 69.0604 64.4541 68.9713 64.2312 68.7397C64.0975 68.5971 63.8479 68.4546 63.6875 68.419C63.1705 68.3299 62.1454 68.2942 62.0384 68.3655ZM63.6072 68.7753C64.0262 68.9178 64.2045 69.3989 64.0084 69.8711C63.9371 70.0403 63.8123 70.2007 63.7231 70.2363C63.634 70.263 63.5003 70.3432 63.4111 70.4145C63.3131 70.5036 63.2507 70.5125 63.2061 70.4501C63.1794 70.3967 62.9744 70.3521 62.7515 70.3521C62.3147 70.3521 62.3504 70.4145 62.3415 69.5058C62.3415 68.5971 62.3058 68.6595 62.8317 68.6684C63.0813 68.6684 63.4379 68.7129 63.6072 68.7753Z" fill="#115A70"/>
<path d="M66.8936 68.5178C66.5192 68.7761 66.4568 68.9008 66.4568 69.3641C66.4568 69.854 66.7331 70.148 67.5176 70.5133C67.8919 70.6825 68.2396 70.8251 68.2931 70.8251C68.3465 70.8251 68.3911 70.8696 68.4 70.9231C68.4089 70.9765 68.4446 71.1547 68.4713 71.3151C68.5337 71.6358 68.3287 72.0456 68.1059 72.0456C68.0346 72.0456 67.9722 72.0812 67.9722 72.1168C67.9722 72.1525 67.883 72.1881 67.7761 72.197C67.571 72.2059 66.6886 72.0634 66.4836 71.9832C66.4122 71.9565 66.3677 72.0099 66.3677 72.1257C66.3677 72.393 66.6886 72.491 67.4997 72.4643C68.2663 72.4375 68.605 72.2861 68.8101 71.8763C69.0507 71.3952 68.8546 70.7093 68.4179 70.4866C68.2752 70.4153 68.1504 70.3797 68.1504 70.4064C68.1504 70.442 68.0791 70.4064 67.9989 70.3351C67.9098 70.2638 67.6691 70.1391 67.4641 70.0411C66.956 69.8273 66.8134 69.6491 66.8579 69.3017C66.8936 69.0255 67.1254 68.589 67.2145 68.6336C67.2412 68.6514 67.268 68.6603 67.2858 68.6514C67.4195 68.589 68.0078 68.6336 68.302 68.7137C68.6407 68.8117 68.6674 68.8117 68.712 68.6514C68.7744 68.4109 68.6496 68.3663 67.8919 68.3307C67.2947 68.304 67.1788 68.3218 66.8936 68.5178Z" fill="#115A70"/>
<path d="M58.5517 7.37598V3.21104H56.9092V2.24313H61.3821V3.21104H59.7396V7.37598H58.5517ZM62.0213 7.37598V2.24313H63.0038L65.189 5.86545H64.6683L66.8168 2.24313H67.792L67.8067 7.37598H66.6921L66.6848 3.95164H66.8901L65.1743 6.83336H64.639L62.8865 3.95164H63.1358V7.37598H62.0213Z" fill="#115A70"/>
</svg>
