<svg width="112" height="92" viewBox="0 0 112 92" fill="none" xmlns="http://www.w3.org/2000/svg">
<path fill-rule="evenodd" clip-rule="evenodd" d="M100.044 0.441247C100.044 0.858051 100.06 0.867573 100.755 0.867573H101.466V2.92815V4.98872H101.963H102.46V2.92815V0.867573H103.242C104.016 0.867573 104.024 0.863309 104.024 0.441247V0.0149208H102.034H100.044V0.441247ZM104.734 2.49443V4.98872H105.16H105.587L105.591 2.89262C105.593 1.71681 105.647 0.890168 105.712 1.00968C105.776 1.12692 106.014 2.07294 106.241 3.11189L106.653 5.00094L107.149 4.95931L107.646 4.91767L108.09 2.9587C108.334 1.88123 108.574 0.959233 108.623 0.909922C108.673 0.86061 108.713 1.75817 108.713 2.90441V4.98872H109.139H109.566V2.50182V0.0149208H108.861C108.054 0.0149208 108.165 -0.193837 107.559 2.4663C107.386 3.22842 107.207 3.85185 107.162 3.85185C107.116 3.85171 106.885 3.00446 106.648 1.96891L106.217 0.0859751L105.475 0.043058L104.734 0V2.49443ZM0 10.2895C0 10.7049 0.0734699 10.7941 0.641905 11.0704C2.59291 12.0183 4.41659 14.9028 6.63519 20.5496C7.09577 21.722 11.9144 34.3671 17.3432 48.6498L27.2138 74.6184L28.0112 74.6201L28.8084 74.622L35.3873 58.4571C39.0056 49.5665 42.0417 42.141 42.1342 41.9562C42.2949 41.635 42.3194 41.6603 42.6828 42.5246C42.8919 43.0221 45.6773 49.7601 48.8724 57.4979L54.6817 71.5666L54.2349 72.0369C53.8478 72.4441 52.6129 73.1432 51.8341 73.3956C51.6595 73.4521 51.5854 73.6255 51.5854 73.9781V74.4799H56.5592H61.533V73.9936C61.533 73.5603 61.4766 73.4885 61.0171 73.3369C60.1795 73.0605 59.4308 72.2799 59.1819 71.4235C58.9235 70.5346 58.4351 72.071 63.0667 59.2032L66.4428 49.824H80.205H93.9674L95.0269 52.382C101.526 68.0709 102.008 69.3398 102.136 71.0992C102.232 72.4135 102.059 72.7699 101.104 73.2343C100.545 73.506 100.471 73.5964 100.471 74.0107V74.4799H106.226H111.982V73.9892C111.982 73.5436 111.922 73.4722 111.338 73.2137C109.543 72.4196 107.533 69.5905 105.624 65.1717C104.485 62.5343 83.5157 11.5703 83.4566 11.2956C83.4068 11.0644 83.4772 10.9732 83.7601 10.9021C84.0681 10.8248 84.1283 10.7289 84.1283 10.3151V9.82042H79.1545H74.1807L74.1813 10.2823C74.1817 10.6951 74.2491 10.7718 74.8147 11.0043C76.0774 11.5236 76.8808 12.9172 76.8808 14.5883C76.8808 15.7135 76.5048 17.6276 75.9378 19.3879C75.448 20.9087 68.3796 40.6635 67.0051 44.3528C66.1664 46.6044 58.958 64.417 58.3581 65.7207L57.9093 66.696L51.5539 51.401L45.1985 36.1058L48.1606 27.8304C49.7899 23.2788 51.3568 18.9898 51.6427 18.2992C53.3321 14.219 54.9614 12.0585 57.0211 11.167C57.9258 10.7755 57.9803 10.7255 57.9803 10.2861V9.82042H53.2907H48.6012V10.2826C48.6012 10.6819 48.684 10.7886 49.2118 11.0686C49.9506 11.4605 50.5441 12.3257 50.6755 13.2023C50.828 14.2192 50.6389 16.1569 50.2287 17.7785C49.9185 19.0046 44.8322 33.4605 44.4864 34.0987C44.4236 34.2145 43.532 32.2344 42.2148 29.0538C41.0224 26.1741 39.4539 22.4112 38.7293 20.6917C36.5746 15.5784 36.0956 14.1341 36.0956 12.7508C36.0956 11.9799 36.1343 11.878 36.5906 11.4477C36.8628 11.1911 37.2785 10.9385 37.5143 10.8868C37.8893 10.8044 37.943 10.7316 37.943 10.3066V9.82042H32.2587H26.5743V10.2915C26.5743 10.6959 26.6496 10.7984 27.1072 11.0164C29.0638 11.9484 30.5758 13.9552 32.5481 18.2384C33.5688 20.455 41.4957 39.6567 41.4957 39.9126C41.4957 40.0948 30.4078 67.5701 30.1356 68.0624C30.0035 68.3013 31.1801 71.336 20.8051 43.9975C10.7495 17.5011 10.3326 16.3767 9.92771 14.6751C9.41257 12.5094 9.75064 11.3741 11.0369 10.9496C11.4513 10.8128 11.5108 10.732 11.5108 10.3067V9.82042H5.7554H0V10.2895ZM86.6719 32.1931C90.3505 41.0982 93.3399 48.4046 93.3148 48.4298C93.2898 48.4549 87.3465 48.4592 80.1078 48.4392L66.9465 48.4029L67.9109 45.845C68.4412 44.4381 71.2914 37.2758 74.2445 29.9288C77.1977 22.5818 79.6722 16.4178 79.7434 16.2311C79.8148 16.0445 79.8977 15.9166 79.9282 15.9469C79.9584 15.9773 82.9932 23.2881 86.6719 32.1931ZM1.07932 87.092C1.3452 88.0886 1.74154 89.5753 1.96025 90.396C2.32177 91.7526 2.38998 91.892 2.71101 91.9301C3.05335 91.9709 3.0876 91.8903 3.82912 89.3011C4.24976 87.8321 4.63331 86.5516 4.68134 86.4555C4.72923 86.3594 5.14533 87.5617 5.60562 89.1271C6.4226 91.9048 6.45145 91.9724 6.80274 91.9308C7.14664 91.89 7.20164 91.7424 8.03639 88.6197C8.92357 85.3003 8.94176 85.0904 8.3206 85.3287C8.20805 85.3719 7.85335 86.5368 7.44635 88.2001C7.06976 89.7393 6.74845 90.9431 6.73225 90.8751C6.61018 90.3592 5.87491 87.7984 5.52362 86.6657C5.12032 85.3654 5.07044 85.2801 4.71403 85.2807C4.35165 85.2812 4.31215 85.3576 3.84901 86.9505C3.58213 87.8685 3.227 89.154 3.05988 89.807L2.7562 90.9942L2.06072 88.1372C1.3695 85.2976 1.36282 85.2801 0.980549 85.2801H0.596004L1.07932 87.092ZM13.0029 85.5095C11.8776 86.1234 11.4608 86.9628 11.4567 88.6226C11.4515 90.7813 12.3546 91.8435 14.2691 91.9309C15.1017 91.9689 15.3875 91.9197 15.915 91.6483C17.032 91.0735 17.5616 89.902 17.4454 88.2644C17.3658 87.1424 16.9622 86.2948 16.2484 85.7502C15.7891 85.3998 15.5856 85.3466 14.5774 85.3139C13.727 85.2865 13.3187 85.3371 13.0029 85.5095ZM20.7479 88.6011V91.9592H21.1031H21.4584V90.5381V89.117L22.2045 89.1199L22.9505 89.1229L23.7694 90.541C24.5113 91.8261 24.6271 91.9592 25.0029 91.9592H25.4174L24.511 90.4787L23.6045 88.9981L23.9881 88.7557C24.6435 88.3411 24.8625 87.9599 24.8659 87.227C24.8697 86.3915 24.5936 85.823 24.0625 85.5724C23.8417 85.4683 23.0055 85.3516 22.2045 85.3129L20.7479 85.2429V88.6011ZM27.427 85.5643C27.427 85.8232 27.5218 85.8485 28.4928 85.8485H29.5586V88.9039V91.9592H29.911H30.2635L30.3018 88.9394L30.3402 85.9196L31.3705 85.8778C32.2841 85.8409 32.4008 85.8046 32.4008 85.5581C32.4008 85.2928 32.2875 85.2801 29.9139 85.2801C27.5218 85.2801 27.427 85.2909 27.427 85.5643ZM35.2429 88.6197V91.9592H35.5982H35.9535V90.396V88.8328H37.7298H39.5062V90.396V91.9592H39.8615H40.2167V88.6197V85.2801H39.8615H39.5062V86.7012V88.1223H37.7298H35.9535V86.7012V85.2801H35.5982H35.2429V88.6197ZM43.1716 85.742C43.3245 85.996 43.8414 86.9452 44.3201 87.8514L45.1906 89.499V90.7291C45.1906 91.9464 45.1942 91.9592 45.5458 91.9592C45.8997 91.9592 45.9011 91.9537 45.9011 90.621V89.2826L46.9634 87.317C47.9389 85.5115 48.0015 85.3473 47.7286 85.3036C47.3381 85.241 47.3331 85.2474 46.3979 87.0209C45.9548 87.8612 45.5498 88.5478 45.4979 88.5468C45.4462 88.5458 45.02 87.8106 44.5511 86.9134C43.7699 85.4184 43.6647 85.2817 43.296 85.281L42.8937 85.2801L43.1716 85.742ZM56.6594 85.3786C56.5122 85.6242 54.1434 91.7064 54.1434 91.8387C54.1434 91.9159 54.2858 91.9585 54.46 91.9336C54.7069 91.8981 54.8605 91.6692 55.1581 90.8934L55.5396 89.8986L56.9385 89.8586L58.3374 89.8183L58.7461 90.8889C59.1003 91.8164 59.201 91.9592 59.5009 91.9592C59.9197 91.9592 60.0081 92.2714 58.4909 88.3877C57.5308 85.9294 57.25 85.3429 57.0166 85.3075C56.858 85.2835 56.6972 85.3155 56.6594 85.3786ZM62.6699 88.6218V92L64.1351 91.9252C66.7912 91.7897 67.7858 90.8577 67.7858 88.5044C67.7858 87.148 67.409 86.3802 66.4526 85.7879C65.8422 85.4097 65.6388 85.3659 64.2254 85.3077L62.6699 85.2436V88.6218ZM70.3438 85.4063C70.3438 85.5078 71.1572 87.8275 72.5072 91.5762C72.6201 91.8899 72.7268 91.9656 73.0066 91.9315C73.3237 91.8929 73.429 91.7019 73.9703 90.1829C74.3044 89.2449 74.8364 87.7582 75.1523 86.8788L75.7269 85.2801H75.338C74.9879 85.2801 74.9194 85.3684 74.6491 86.1683C73.2192 90.3991 72.9871 91.0015 72.888 90.7402C72.831 90.59 72.3803 89.3001 71.8868 87.8736C71.0775 85.5352 70.9576 85.2801 70.6665 85.2801C70.489 85.2801 70.3438 85.337 70.3438 85.4063ZM78.444 88.6197V91.9592H78.7992H79.1545V88.6197V85.2801H78.7992H78.444V88.6197ZM83.242 85.4953C82.7813 85.7539 82.4229 86.3878 82.4236 86.9428C82.4246 87.717 82.911 88.2404 84.1664 88.818C85.4852 89.4247 85.7388 89.6589 85.7388 90.2694C85.7388 91.0084 85.2709 91.3197 84.1601 91.3197C83.6346 91.3197 82.9968 91.2667 82.7428 91.2019C82.3306 91.0966 82.2809 91.1162 82.2809 91.383C82.2809 91.7895 82.7881 91.9592 84.0026 91.9592C85.625 91.9592 86.3932 91.4046 86.3989 90.2293C86.4033 89.3112 85.9645 88.8229 84.6831 88.3202C83.168 87.7257 82.7361 86.9436 83.5009 86.1788C83.8376 85.8421 83.941 85.8178 84.7444 85.8866C85.2262 85.9278 85.7241 86.0037 85.8508 86.0553C86.1316 86.1697 86.3422 85.7319 86.1154 85.5051C85.8595 85.249 83.6938 85.2416 83.242 85.4953ZM90.8785 85.5095C89.7531 86.1234 89.3363 86.9628 89.3322 88.6226C89.3271 90.7813 90.2302 91.8435 92.1447 91.9309C92.9773 91.9689 93.2631 91.9197 93.7906 91.6483C94.9075 91.0735 95.4372 89.902 95.3209 88.2644C95.2414 87.1424 94.8378 86.2948 94.124 85.7502C93.6647 85.3998 93.4612 85.3466 92.4529 85.3139C91.6025 85.2865 91.1942 85.3371 90.8785 85.5095ZM98.6234 88.6011V91.9592H98.9787H99.3339V90.5381V89.117L100.08 89.1199L100.826 89.1229L101.645 90.541C102.387 91.8261 102.503 91.9592 102.878 91.9592H103.293L102.387 90.4787L101.48 88.9981L101.864 88.7557C102.519 88.3411 102.738 87.9599 102.741 87.227C102.745 86.3915 102.469 85.823 101.938 85.5724C101.717 85.4683 100.881 85.3516 100.08 85.3129L98.6234 85.2429V88.6011ZM106.779 85.4194C106.269 85.6251 105.871 86.2626 105.871 86.8719C105.871 87.8898 106.271 88.3219 107.755 88.9067C108.283 89.1148 108.811 89.4213 108.927 89.588C109.396 90.2565 109.037 91.1263 108.207 91.3346C107.801 91.4364 106.375 91.3346 105.978 91.1756C105.787 91.0996 105.729 91.1475 105.729 91.3791C105.729 91.7833 106.229 91.9592 107.377 91.9592C109.058 91.9592 109.779 91.4168 109.779 90.1523C109.779 89.4467 109.735 89.3333 109.327 88.9948C109.078 88.7885 108.478 88.4672 107.993 88.281C107.509 88.0947 106.993 87.8229 106.847 87.6771C106.581 87.4109 106.49 86.6316 106.69 86.3317C106.999 85.8687 108.157 85.6982 108.948 85.999C109.277 86.124 109.376 86.1059 109.533 85.8925C109.7 85.6651 109.675 85.6156 109.324 85.4641C108.868 85.2679 107.225 85.239 106.779 85.4194ZM15.5517 86.0668C15.813 86.1909 16.1599 86.5437 16.3547 86.8839C16.8221 87.6999 16.8494 89.4983 16.4059 90.2535C15.5268 91.75 13.3692 91.79 12.5456 90.325C12.1192 89.5664 12.0856 87.7338 12.4845 86.9831C13.0389 85.9399 14.4168 85.5282 15.5517 86.0668ZM23.8376 86.3071C24.1589 86.609 24.2712 87.3791 24.0702 87.9027C23.9213 88.2908 23.222 88.5486 22.3182 88.5486H21.4584V87.2934C21.4584 86.6029 21.5063 85.9888 21.565 85.9287C21.6237 85.8686 22.0867 85.8612 22.5941 85.9125C23.2474 85.9784 23.6102 86.0935 23.8376 86.3071ZM65.9107 86.1895C66.641 86.5672 66.9916 87.2102 67.0523 88.2837C67.119 89.4665 66.9107 90.1193 66.2935 90.6613C65.7781 91.1138 64.597 91.4436 63.7751 91.3645L63.3094 91.3197L63.2705 88.7666C63.249 87.3623 63.2665 86.1221 63.3093 86.0107C63.4124 85.7418 65.2952 85.8711 65.9107 86.1895ZM93.4272 86.0668C93.6885 86.1909 94.0354 86.5437 94.2303 86.8839C94.6976 87.6999 94.7249 89.4983 94.2814 90.2535C93.4023 91.75 91.2447 91.79 90.4212 90.325C89.9947 89.5664 89.9612 87.7338 90.3601 86.9831C90.9144 85.9399 92.2923 85.5282 93.4272 86.0668ZM101.713 86.3071C102.034 86.609 102.147 87.3791 101.946 87.9027C101.797 88.2908 101.098 88.5486 100.194 88.5486H99.3339V87.2934C99.3339 86.6029 99.3818 85.9888 99.4405 85.9287C99.4992 85.8686 99.9622 85.8612 100.47 85.9125C101.123 85.9784 101.486 86.0935 101.713 86.3071ZM57.5617 87.6987L58.0851 89.117H56.9773H55.8697L56.3917 87.6364C56.6789 86.822 56.9418 86.1838 56.976 86.218C57.0104 86.2523 57.2739 86.9186 57.5617 87.6987Z" fill="white"/>
</svg>
