<svg width="130" height="106" viewBox="0 0 130 106" fill="none" xmlns="http://www.w3.org/2000/svg">
<path fill-rule="evenodd" clip-rule="evenodd" d="M116.142 1.34381C116.142 1.81802 116.16 1.82885 116.967 1.82885H117.792V4.17321V6.51757H118.369H118.947V4.17321V1.82885H119.854C120.752 1.82885 120.761 1.824 120.761 1.34381V0.858773H118.452H116.142V1.34381ZM121.586 3.67976V6.51757H122.081H122.576L122.581 4.13279C122.584 2.79505 122.646 1.85456 122.722 1.99053C122.796 2.12392 123.073 3.20022 123.336 4.38226L123.813 6.53147L124.39 6.4841L124.967 6.43673L125.482 4.20797C125.765 2.98211 126.044 1.93314 126.101 1.87703C126.159 1.82093 126.206 2.8421 126.206 4.14621V6.51757H126.701H127.195V3.68817V0.858773H126.377C125.44 0.858773 125.569 0.621265 124.866 3.64775C124.665 4.51484 124.457 5.22413 124.404 5.22413C124.352 5.22397 124.083 4.26003 123.808 3.08187L123.307 0.939613L122.447 0.890785L121.586 0.841797V3.67976ZM0 12.5484C0 13.021 0.0852916 13.1225 0.74519 13.4368C3.01013 14.5152 5.12724 17.797 7.70283 24.2215C8.23751 25.5554 13.8315 39.942 20.1338 56.1916L31.5926 85.7367L32.5183 85.7386L33.4438 85.7407L41.0813 67.3496C45.2817 57.2346 48.8064 48.7865 48.9138 48.5762C49.1004 48.2108 49.1288 48.2396 49.5506 49.2229C49.7935 49.7889 53.027 57.4548 56.7363 66.2583L63.4803 82.2646L62.9616 82.7996C62.5122 83.263 61.0785 84.0583 60.1745 84.3454C59.9717 84.4098 59.8858 84.607 59.8858 85.0082V85.5791H65.6599H71.434V85.0258C71.434 84.5328 71.3685 84.4512 70.835 84.2787C69.8626 83.9642 68.9935 83.0761 68.7045 82.1018C68.4046 81.0905 67.8376 82.8384 73.2144 68.1985L77.1337 57.5276H93.1104H109.087L110.317 60.4378C117.862 78.2875 118.422 79.7311 118.571 81.7329C118.681 83.2281 118.481 83.6336 117.372 84.1619C116.723 84.4711 116.637 84.5739 116.637 85.0454V85.5791H123.319H130V85.0208C130 84.5139 129.931 84.4326 129.253 84.1385C127.169 83.235 124.835 80.0163 122.62 74.989C121.297 71.9884 96.9538 14.0056 96.8851 13.6931C96.8274 13.43 96.9091 13.3262 97.2375 13.2454C97.595 13.1574 97.665 13.0483 97.665 12.5775V12.0147H91.8909H86.1168L86.1174 12.5401C86.1179 13.0098 86.1961 13.0971 86.8527 13.3616C88.3187 13.9524 89.2513 15.538 89.2513 17.4392C89.2513 18.7194 88.8148 20.8971 88.1565 22.8998C87.588 24.6301 79.3822 47.1055 77.7865 51.3029C76.8128 53.8646 68.4447 74.1303 67.7482 75.6136L67.2272 76.7232L59.8492 59.3218L52.4712 41.9201L55.9099 32.505C57.8013 27.3266 59.6203 22.4469 59.9523 21.6612C61.9135 17.019 63.8049 14.561 66.1961 13.5468C67.2463 13.1013 67.3096 13.0444 67.3096 12.5445V12.0147H61.8655H56.4213V12.5405C56.4213 12.9948 56.5175 13.1162 57.1302 13.4347C57.9879 13.8806 58.6768 14.8649 58.8294 15.8623C59.0065 17.0193 58.7869 19.2238 58.3108 21.0688C57.9506 22.4637 52.0459 38.9105 51.6445 39.6366C51.5716 39.7683 50.5365 37.5155 49.0074 33.8969C47.6231 30.6207 45.8022 26.3395 44.961 24.3832C42.4597 18.5656 41.9036 16.9225 41.9036 15.3487C41.9036 14.4716 41.9484 14.3557 42.4782 13.8661C42.7942 13.5741 43.2768 13.2868 43.5505 13.2279C43.9859 13.1342 44.0482 13.0514 44.0482 12.5678V12.0147H37.4492H30.8503V12.5507C30.8503 13.0108 30.9377 13.1274 31.4689 13.3754C33.7403 14.4357 35.4956 16.7189 37.7853 21.592C38.9701 24.1138 48.1726 45.96 48.1726 46.2512C48.1726 46.4585 35.3006 77.7177 34.9845 78.2778C34.8313 78.5495 36.1971 82.0022 24.1528 50.8987C12.4792 20.7532 11.9951 19.474 11.5251 17.538C10.9271 15.074 11.3196 13.7823 12.8128 13.2994C13.2938 13.1437 13.3629 13.0519 13.3629 12.568V12.0147H6.68147H0V12.5484ZM100.618 37.4686C104.888 47.6001 108.359 55.9127 108.33 55.9414C108.301 55.97 101.401 55.9748 92.9975 55.952L77.7186 55.9108L78.8381 53.0006C79.4538 51.3999 82.7625 43.2513 86.1908 34.8924C89.6191 26.5336 92.4919 19.5207 92.5745 19.3082C92.6573 19.0959 92.7537 18.9504 92.789 18.9849C92.8241 19.0195 96.3472 27.3371 100.618 37.4686ZM1.25298 99.9282C1.56165 101.062 2.02176 102.754 2.27566 103.687C2.69536 105.231 2.77454 105.389 3.14722 105.433C3.54464 105.479 3.5844 105.387 4.44524 102.441C4.93357 100.77 5.37883 99.3133 5.43459 99.204C5.49019 99.0947 5.97324 100.463 6.50759 102.244C7.45603 105.404 7.48952 105.481 7.89733 105.433C8.29657 105.387 8.36042 105.219 9.32948 101.666C10.3594 97.8897 10.3805 97.6509 9.65943 97.922C9.52877 97.9712 9.11699 99.2965 8.64451 101.189C8.20732 102.94 7.83431 104.31 7.81551 104.232C7.67379 103.645 6.82022 100.732 6.4124 99.4431C5.9442 97.9637 5.88629 97.8667 5.47254 97.8674C5.05185 97.868 5.00599 97.9548 4.46834 99.7671C4.15852 100.812 3.74624 102.274 3.55223 103.017L3.19968 104.368L2.3923 101.117C1.58986 97.8866 1.58211 97.8667 1.13832 97.8667H0.691904L1.25298 99.9282ZM15.0952 98.1277C13.7887 98.8261 13.3049 99.7812 13.3001 101.67C13.2941 104.126 14.3426 105.334 16.5651 105.434C17.5317 105.477 17.8635 105.421 18.4758 105.112C19.7725 104.458 20.3874 103.125 20.2524 101.262C20.1601 99.9855 19.6915 99.0211 18.8629 98.4016C18.3297 98.0029 18.0934 97.9424 16.9229 97.9052C15.9357 97.874 15.4618 97.9316 15.0952 98.1277ZM24.0863 101.645V105.466H24.4987H24.9112V103.849V102.232L25.7773 102.235L26.6434 102.239L27.594 103.852C28.4553 105.314 28.5898 105.466 29.026 105.466H29.5072L28.455 103.781L27.4026 102.097L27.8479 101.821C28.6087 101.349 28.863 100.916 28.8669 100.082C28.8714 99.1312 28.5508 98.4844 27.9343 98.1993C27.678 98.0808 26.7072 97.9481 25.7773 97.9041L24.0863 97.8244V101.645ZM31.8401 98.1901C31.8401 98.4847 31.9501 98.5135 33.0774 98.5135H34.3147V101.99V105.466H34.7239H35.133L35.1775 102.03L35.2221 98.5943L36.4181 98.5468C37.4788 98.5047 37.6142 98.4635 37.6142 98.183C37.6142 97.8811 37.4827 97.8667 34.7272 97.8667C31.9501 97.8667 31.8401 97.879 31.8401 98.1901ZM40.9137 101.666V105.466H41.3261H41.7386V103.687V101.909H43.8008H45.8629V103.687V105.466H46.2754H46.6878V101.666V97.8667H46.2754H45.8629V99.4835V101.1H43.8008H41.7386V99.4835V97.8667H41.3261H40.9137V101.666ZM50.1181 98.3922C50.2956 98.6813 50.8957 99.7611 51.4515 100.792L52.4619 102.667V104.066C52.4619 105.451 52.4662 105.466 52.8744 105.466C53.2851 105.466 53.2868 105.459 53.2868 103.943V102.42L54.52 100.184C55.6525 98.13 55.7251 97.9432 55.4084 97.8934C54.955 97.8223 54.9493 97.8296 53.8636 99.8473C53.3492 100.803 52.879 101.584 52.8188 101.583C52.7587 101.582 52.264 100.746 51.7195 99.7249C50.8127 98.024 50.6906 97.8685 50.2625 97.8677L49.7954 97.8667L50.1181 98.3922ZM65.7762 97.9788C65.6053 98.2582 62.8553 105.178 62.8553 105.329C62.8553 105.416 63.0206 105.465 63.2229 105.437C63.5095 105.396 63.6878 105.136 64.0333 104.253L64.4762 103.121L66.1002 103.076L67.7242 103.03L68.1987 104.248C68.6098 105.303 68.7268 105.466 69.0749 105.466C69.5611 105.466 69.6637 105.821 67.9024 101.402C66.7878 98.6054 66.4618 97.9382 66.1908 97.8979C66.0067 97.8706 65.8201 97.907 65.7762 97.9788ZM72.7538 101.669V105.512L74.4547 105.427C77.5382 105.273 78.6929 104.213 78.6929 101.535C78.6929 99.9919 78.2554 99.1183 77.1451 98.4444C76.4365 98.0142 76.2005 97.9644 74.5596 97.8981L72.7538 97.8252V101.669ZM81.6624 98.0103C81.6624 98.1257 82.6067 100.765 84.174 105.03C84.305 105.387 84.4289 105.473 84.7537 105.434C85.1218 105.39 85.244 105.173 85.8724 103.445C86.2603 102.378 86.8779 100.686 87.2447 99.6856L87.9117 97.8667H87.4603C87.0538 97.8667 86.9743 97.9671 86.6605 98.8772C85.0005 103.691 84.7311 104.376 84.616 104.079C84.5498 103.908 84.0267 102.44 83.4537 100.817C82.5142 98.157 82.375 97.8667 82.0371 97.8667C81.831 97.8667 81.6624 97.9314 81.6624 98.0103ZM91.066 101.666V105.466H91.4784H91.8909V101.666V97.8667H91.4784H91.066V101.666ZM96.636 98.1115C96.1012 98.4058 95.6851 99.127 95.6859 99.7584C95.6871 100.639 96.2518 101.235 97.7092 101.892C99.2402 102.582 99.5346 102.849 99.5346 103.543C99.5346 104.384 98.9914 104.738 97.7019 104.738C97.0918 104.738 96.3514 104.678 96.0565 104.604C95.578 104.484 95.5203 104.507 95.5203 104.81C95.5203 105.273 96.1091 105.466 97.519 105.466C99.4025 105.466 100.294 104.835 100.301 103.498C100.306 102.453 99.7966 101.897 98.309 101.326C96.5501 100.649 96.0487 99.7594 96.9366 98.8892C97.3274 98.5062 97.4475 98.4785 98.3801 98.5568C98.9396 98.6037 99.5175 98.69 99.6646 98.7487C99.9906 98.8789 100.235 98.3807 99.9718 98.1227C99.6747 97.8313 97.1605 97.8229 96.636 98.1115ZM105.501 98.1277C104.195 98.8261 103.711 99.7812 103.706 101.67C103.7 104.126 104.749 105.334 106.971 105.434C107.938 105.477 108.27 105.421 108.882 105.112C110.179 104.458 110.793 103.125 110.659 101.262C110.566 99.9855 110.098 99.0211 109.269 98.4016C108.736 98.0029 108.5 97.9424 107.329 97.9052C106.342 97.874 105.868 97.9316 105.501 98.1277ZM114.492 101.645V105.466H114.905H115.317V103.849V102.232L116.183 102.235L117.049 102.239L118 103.852C118.861 105.314 118.996 105.466 119.432 105.466H119.913L118.861 103.781L117.809 102.097L118.254 101.821C119.015 101.349 119.269 100.916 119.273 100.082C119.277 99.1312 118.957 98.4844 118.34 98.1993C118.084 98.0808 117.114 97.9481 116.183 97.9041L114.492 97.8244V101.645ZM123.96 98.0252C123.369 98.2593 122.906 98.9846 122.906 99.6777C122.906 100.836 123.371 101.327 125.093 101.993C125.706 102.23 126.319 102.578 126.454 102.768C126.998 103.528 126.581 104.518 125.618 104.755C125.147 104.871 123.492 104.755 123.03 104.574C122.809 104.488 122.741 104.542 122.741 104.806C122.741 105.266 123.321 105.466 124.654 105.466C126.606 105.466 127.443 104.849 127.443 103.41C127.443 102.607 127.392 102.478 126.918 102.093C126.63 101.858 125.933 101.493 125.37 101.281C124.807 101.069 124.208 100.76 124.039 100.594C123.73 100.291 123.625 99.4043 123.857 99.0632C124.216 98.5364 125.56 98.3424 126.479 98.6847C126.86 98.8268 126.975 98.8063 127.157 98.5634C127.351 98.3047 127.323 98.2485 126.915 98.0761C126.386 97.8528 124.478 97.82 123.96 98.0252ZM18.054 98.7618C18.3574 98.9029 18.7601 99.3044 18.9863 99.6915C19.5289 100.62 19.5605 102.666 19.0457 103.525C18.0251 105.228 15.5203 105.273 14.5643 103.606C14.0692 102.743 14.0303 100.658 14.4934 99.8043C15.1369 98.6174 16.7365 98.149 18.054 98.7618ZM27.6732 99.0352C28.0462 99.3786 28.1765 100.255 27.9432 100.851C27.7703 101.292 26.9585 101.585 25.9093 101.585H24.9112V100.157C24.9112 99.3717 24.9668 98.673 25.0349 98.6047C25.103 98.5363 25.6405 98.5278 26.2296 98.5862C26.988 98.6612 27.4092 98.7922 27.6732 99.0352ZM76.5161 98.9013C77.3639 99.3311 77.7709 100.063 77.8413 101.284C77.9188 102.63 77.677 103.372 76.9605 103.989C76.3621 104.504 74.991 104.879 74.0368 104.789L73.4962 104.738L73.451 101.833C73.4261 100.236 73.4464 98.8247 73.496 98.6979C73.6158 98.392 75.8015 98.5392 76.5161 98.9013ZM108.46 98.7618C108.763 98.9029 109.166 99.3044 109.392 99.6915C109.935 100.62 109.967 102.666 109.452 103.525C108.431 105.228 105.926 105.273 104.97 103.606C104.475 102.743 104.436 100.658 104.899 99.8043C105.543 98.6174 107.143 98.149 108.46 98.7618ZM118.079 99.0352C118.452 99.3786 118.583 100.255 118.349 100.851C118.176 101.292 117.365 101.585 116.315 101.585H115.317V100.157C115.317 99.3717 115.373 98.673 115.441 98.6047C115.509 98.5363 116.047 98.5278 116.636 98.5862C117.394 98.6612 117.815 98.7922 118.079 99.0352ZM66.8236 100.618L67.4312 102.232H66.1453H64.8594L65.4654 100.548C65.7988 99.621 66.104 98.8949 66.1438 98.9338C66.1837 98.9728 66.4896 99.7309 66.8236 100.618Z" fill="#154F75"/>
</svg>
