<svg width="11" height="15" viewBox="0 0 11 15" fill="none" xmlns="http://www.w3.org/2000/svg">
<path d="M5.79183 6.89714C5.32218 6.89714 4.87176 6.71057 4.53966 6.37847C4.20757 6.04637 4.021 5.59596 4.021 5.1263C4.021 4.65665 4.20757 4.20623 4.53966 3.87413C4.87176 3.54204 5.32218 3.35547 5.79183 3.35547C6.26148 3.35547 6.7119 3.54204 7.044 3.87413C7.37609 4.20623 7.56266 4.65665 7.56266 5.1263C7.56266 5.35885 7.51686 5.58912 7.42787 5.80397C7.33887 6.01882 7.20843 6.21403 7.044 6.37847C6.87956 6.54291 6.68435 6.67335 6.4695 6.76234C6.25465 6.85133 6.02438 6.89714 5.79183 6.89714ZM5.79183 0.167969C4.4768 0.167969 3.21563 0.690363 2.28576 1.62023C1.35589 2.5501 0.833496 3.81127 0.833496 5.1263C0.833496 8.84505 5.79183 14.3346 5.79183 14.3346C5.79183 14.3346 10.7502 8.84505 10.7502 5.1263C10.7502 3.81127 10.2278 2.5501 9.2979 1.62023C8.36803 0.690363 7.10686 0.167969 5.79183 0.167969Z" fill="#DDE0E2"/>
</svg>
