<svg width="16" height="12" viewBox="0 0 16 12" fill="none" xmlns="http://www.w3.org/2000/svg">
<path fill-rule="evenodd" clip-rule="evenodd" d="M1.27008 0.937073L0.833496 1.37348V6.1912V11.0089L1.27008 11.4453L1.70649 11.8819H7.94689H14.1873L14.6237 11.4453L15.0603 11.0089V6.1912V1.37348L14.6237 0.937073L14.1873 0.500488H7.94689H1.70649L1.27008 0.937073ZM12.378 1.98914C12.3373 2.02542 11.3234 2.66598 10.1254 3.41253L7.94689 4.77012L5.76841 3.41253C4.57016 2.66598 3.55668 2.02542 3.51578 1.98914C3.47505 1.95287 5.46912 1.92317 7.94689 1.92317C10.4247 1.92317 12.4187 1.95287 12.378 1.98914ZM5.53438 5.39326L7.94689 6.90717L10.3594 5.39326C11.6864 4.56064 12.8068 3.87935 12.8491 3.87935C12.8916 3.87935 12.9263 5.35983 12.9263 7.16929V10.4592H7.94689H2.96751V7.16929C2.96751 5.35983 3.00219 3.87935 3.04469 3.87935C3.08702 3.87935 4.20738 4.56064 5.53438 5.39326Z" fill="#F7FBFD" fill-opacity="0.85"/>
</svg>
