<svg width="15" height="15" viewBox="0 0 15 15" fill="none" xmlns="http://www.w3.org/2000/svg">
<path d="M14.221 10.0775C13.2529 10.0775 12.3164 9.9201 11.4428 9.63676C11.3059 9.59037 11.1587 9.58348 11.0181 9.61689C10.8775 9.6503 10.7492 9.72265 10.6478 9.82565L9.4122 11.3761C7.18489 10.3136 5.09924 8.30667 3.98951 6.00065L5.52424 4.69417C5.73674 4.4738 5.7997 4.16685 5.71313 3.89139C5.42192 3.01778 5.27239 2.08121 5.27239 1.11315C5.27239 0.688151 4.91822 0.333984 4.49322 0.333984H1.77007C1.34507 0.333984 0.833496 0.522873 0.833496 1.11315C0.833496 8.42473 6.91729 14.5007 14.221 14.5007C14.7798 14.5007 15.0002 14.0048 15.0002 13.5719V10.8567C15.0002 10.4317 14.646 10.0775 14.221 10.0775Z" fill="#DDE0E2"/>
</svg>
