<svg width="354" height="419" viewBox="0 0 354 419" fill="none" xmlns="http://www.w3.org/2000/svg">
<path d="M289.1 112.118L277.196 107.318C277.196 107.318 261.488 135.962 256.988 137.414C250.868 139.382 238.196 144.854 230.684 145.814C229.664 147.014 227.996 150.746 228.152 152.102C238.244 155.474 260.42 150.998 265.172 147.47C275.984 139.466 289.1 112.118 289.1 112.118Z" fill="#E58A7B"/>
<path d="M292.761 105.601C294.981 113.797 282.957 130.286 282.957 130.286L267.201 121.454C267.201 121.454 270.153 114.673 273.753 107.773C279.525 96.6255 290.229 96.2535 292.761 105.601Z" fill="#304370"/>
<path opacity="0.2" d="M292.761 105.601C294.981 113.797 282.957 130.286 282.957 130.286L267.201 121.454C267.201 121.454 270.153 114.673 273.753 107.773C279.525 96.6255 290.229 96.2535 292.761 105.601Z" fill="black"/>
<path opacity="0.2" d="M273.453 124.982L279.657 128.462L280.749 109.418C277.137 112.19 274.593 120.542 273.453 124.982Z" fill="black"/>
<path d="M282.392 99.4333C282.392 99.4333 270.128 126.721 277.28 177.529H325.604C326.372 170.113 323.828 133.921 333.032 98.9773C327.731 97.9413 322.367 97.2558 316.976 96.9253C310.138 96.529 303.282 96.529 296.444 96.9253C291.704 97.4067 287.006 98.245 282.392 99.4333Z" fill="#304370"/>
<path opacity="0.2" d="M282.392 99.4333C282.392 99.4333 270.128 126.721 277.28 177.529H325.604C326.372 170.113 323.828 133.921 333.032 98.9773C327.731 97.9413 322.367 97.2558 316.976 96.9253C310.138 96.529 303.282 96.529 296.444 96.9253C291.704 97.4067 287.006 98.245 282.392 99.4333Z" fill="black"/>
<g style="mix-blend-mode:multiply">
<path d="M271.184 416.569C271.112 417.865 289.436 418.909 312.104 418.909C334.772 418.909 353.228 417.865 353.3 416.569C353.372 415.273 335.06 414.241 312.38 414.241C289.7 414.241 271.268 415.285 271.184 416.569Z" fill="#E8ECF1"/>
</g>
<path d="M303.442 382.517L294.871 385.835L302.254 404.908L310.825 401.59L303.442 382.517Z" fill="#E58A7B"/>
<path d="M341.66 407.342H332.624L329.312 386.426H338.348L341.66 407.342Z" fill="#E58A7B"/>
<path d="M332 406.296H342.152C342.328 406.297 342.498 406.36 342.632 406.474C342.766 406.588 342.856 406.746 342.884 406.92L344.192 414.948C344.22 415.15 344.203 415.355 344.145 415.549C344.086 415.744 343.986 415.923 343.852 416.076C343.717 416.229 343.552 416.35 343.366 416.433C343.181 416.516 342.979 416.558 342.776 416.556C339.236 416.496 337.532 416.28 333.068 416.28C330.32 416.28 324.668 416.568 320.852 416.568C317.036 416.568 316.784 412.824 318.356 412.476C325.412 410.952 328.148 408.876 330.5 406.86C330.915 406.496 331.448 406.295 332 406.296Z" fill="#263238"/>
<path d="M302 403.201L311.6 400.393C311.772 400.345 311.954 400.357 312.118 400.427C312.282 400.496 312.417 400.62 312.5 400.777L316.1 407.977C316.184 408.16 316.227 408.359 316.225 408.56C316.224 408.76 316.179 408.959 316.094 409.14C316.008 409.322 315.883 409.483 315.729 409.612C315.575 409.74 315.394 409.834 315.2 409.885C311.708 410.845 309.368 411.433 305 412.705C301.988 413.581 298.916 415.009 295.94 415.957C293.876 416.617 289.028 416.641 286.52 416.641C282.812 416.641 281.984 412.729 283.58 412.549C287.6 412.105 288.14 412.309 290.36 411.193C293.993 409.605 297.285 407.332 300.056 404.497C300.579 403.902 301.249 403.455 302 403.201Z" fill="#263238"/>
<path d="M232.196 145.764L222.26 141.6L218.168 152.616C222.24 153.236 226.383 153.236 230.456 152.616L232.196 145.764Z" fill="#E58A7B"/>
<path d="M214.868 141.314L214.604 148.634L218.168 152.594L222.26 141.578L214.868 141.314Z" fill="#E58A7B"/>
<path d="M304.617 384.135L296.02 387.455L299.827 397.317L308.425 393.998L304.617 384.135Z" fill="#CF6F64"/>
<path d="M338.348 386.426H329.312L331.028 397.214H340.064L338.348 386.426Z" fill="#CF6F64"/>
<path opacity="0.2" d="M275.745 163.79C275.925 165.962 276.129 168.182 276.393 170.462L312.321 158.798C317.931 157.135 322.808 153.609 326.145 148.802C326.289 145.598 326.469 142.226 326.745 138.71C326.865 137.006 327.009 135.254 327.165 133.478C327.321 131.702 327.537 129.734 327.765 127.838L275.745 163.79Z" fill="black"/>
<path d="M286.481 125.428L285.281 125.284C285.989 119.284 290.465 114.556 295.181 114.676V115.876C291.053 115.792 287.117 120.052 286.481 125.428Z" fill="white"/>
<path d="M295.876 134.505H295.672V133.305C299.8 133.461 303.676 129.153 304.312 123.789L305.512 123.933C304.876 129.801 300.544 134.505 295.876 134.505Z" fill="white"/>
<path d="M316.305 73.8C314.613 80.412 312.621 92.52 316.977 96.924C316.977 96.924 313.929 103.632 301.653 103.632C290.433 103.632 296.445 96.924 296.445 96.924C303.909 95.172 304.041 89.724 303.057 84.564L316.305 73.8Z" fill="#F7A699"/>
<path d="M310.904 78.1922L303.068 84.5642C303.311 85.7499 303.452 86.9544 303.488 88.1642C305.78 90.4442 310.376 84.6722 310.844 81.7202C311.082 80.558 311.103 79.3618 310.904 78.1922Z" fill="#CF6F64"/>
<path d="M289.592 73.7168C290.138 74.6618 290.872 75.4842 291.749 76.1326C292.627 76.7809 293.629 77.2412 294.692 77.4848C297.572 78.1208 299.012 75.4688 298.22 72.8048C297.512 70.4048 295.148 67.1768 292.22 67.7288C291.593 67.858 291.006 68.1356 290.508 68.5383C290.01 68.9411 289.616 69.4572 289.359 70.0436C289.102 70.63 288.988 71.2695 289.029 71.9086C289.07 72.5476 289.263 73.1677 289.592 73.7168Z" fill="#CF6F64"/>
<path d="M294.356 52.5608C289.868 54.6128 288.284 72.4448 293.924 75.0848C299.564 77.7248 302.852 48.6608 294.356 52.5608Z" fill="#263238"/>
<path d="M317.672 63.854C316.592 72.806 316.472 78.074 311.672 82.658C310.185 84.1792 308.306 85.2598 306.243 85.7804C304.18 86.301 302.014 86.2415 299.982 85.6083C297.951 84.9751 296.135 83.793 294.733 82.1924C293.332 80.5918 292.4 78.635 292.04 76.538C290.588 68.498 292.592 55.214 301.568 51.65C303.454 50.8182 305.528 50.5059 307.575 50.7456C309.623 50.9852 311.569 51.7681 313.211 53.0131C314.854 54.258 316.134 55.9197 316.918 57.8259C317.703 59.7321 317.963 61.8134 317.672 63.854Z" fill="#F7A699"/>
<path d="M302.924 57.1931C309.572 55.5011 314.456 54.3491 312.704 59.8811C310.388 67.2731 307.604 74.4251 311.336 74.7491C313.616 74.9531 323.696 70.6811 322.412 66.3491C321.296 62.5811 326.012 61.5491 326.852 59.6411C329.96 52.7291 321.068 53.6411 322.652 49.4411C324.236 45.2411 315.452 38.4731 310.652 41.8451C302.84 47.2931 289.436 47.2091 296.48 38.2451C301.532 31.8491 292.52 33.1571 292.52 33.1571C292.52 33.1571 297.968 36.3851 288.8 41.3771C279.104 46.7051 287.996 61.0211 302.924 57.1931Z" fill="#263238"/>
<path d="M321.2 73.7168C319.888 75.6158 317.916 76.9589 315.668 77.4848C312.704 78.1208 311.564 75.4688 312.68 72.8048C313.676 70.4048 316.412 67.1768 319.244 67.7288C322.076 68.2808 322.724 71.3648 321.2 73.7168Z" fill="#F7A699"/>
<path d="M277.281 177.53C277.281 177.53 269.169 250.13 268.533 277.682C267.885 306.338 296.025 395.75 296.025 395.75L310.425 389.75C310.425 389.75 293.625 308.054 296.025 279.914C298.569 249.23 309.081 177.578 309.081 177.578L277.281 177.53Z" fill="#304370"/>
<path opacity="0.2" d="M297.441 197.462C290.973 210.878 295.329 237.41 298.833 253.13C300.165 242.03 301.749 229.982 303.249 218.834C303.105 201.698 301.773 188.462 297.441 197.462Z" fill="black"/>
<path d="M309.788 384.996C309.86 384.996 311.492 389.58 311.492 389.58L294.884 396.564L292.268 391.692L309.788 384.996Z" fill="#304370"/>
<path d="M294.428 177.53C294.428 177.53 300.632 246.578 304.736 272.438C309.248 300.77 326.936 395.126 326.936 395.126H343.484C343.484 395.126 333.572 303.062 331.7 275.006C329.66 244.574 325.604 177.53 325.604 177.53H294.428Z" fill="#304370"/>
<path d="M343.737 390.818C343.809 390.818 344.289 395.438 344.289 395.438H326.097L324.801 390.134L343.737 390.818Z" fill="#304370"/>
<path opacity="0.2" d="M337.4 385.345C337.363 385.345 337.326 385.332 337.298 385.308C337.269 385.284 337.25 385.25 337.244 385.213C337.148 384.373 328.208 301.213 326.528 276.013C324.704 248.677 321.032 188.041 320.996 187.429C320.994 187.409 320.997 187.389 321.003 187.37C321.01 187.351 321.02 187.334 321.034 187.319C321.047 187.304 321.064 187.293 321.082 187.285C321.1 187.277 321.12 187.273 321.14 187.273C321.18 187.273 321.217 187.287 321.246 187.314C321.275 187.341 321.293 187.377 321.296 187.417C321.296 188.029 325.004 248.617 326.828 276.001C328.508 301.201 337.448 384.301 337.532 385.201C337.536 385.221 337.535 385.241 337.53 385.26C337.525 385.28 337.516 385.298 337.503 385.314C337.491 385.33 337.475 385.343 337.458 385.352C337.44 385.362 337.42 385.367 337.4 385.369V385.345Z" fill="black"/>
<path d="M303.945 66.3497C303.945 67.0817 303.489 67.6697 303.009 67.6697C302.529 67.6697 302.181 67.0817 302.229 66.3497C302.277 65.6177 302.685 65.0297 303.165 65.0297C303.645 65.0297 303.993 65.6297 303.945 66.3497Z" fill="#263238"/>
<path d="M295.712 66.3497C295.712 67.0817 295.244 67.6697 294.776 67.6697C294.308 67.6697 293.948 67.0817 293.984 66.3497C294.02 65.6177 294.452 65.0297 294.932 65.0297C295.412 65.0297 295.76 65.6297 295.712 66.3497Z" fill="#263238"/>
<path d="M298.304 66.7219C297.303 68.9571 296.012 71.051 294.464 72.9499C295.664 74.1499 297.908 73.5979 297.908 73.5979L298.304 66.7219Z" fill="#DF5753"/>
<path d="M298.521 76.6568C298.493 76.6568 298.465 76.6512 298.44 76.6402C298.414 76.6292 298.391 76.6131 298.372 76.5928C298.353 76.5726 298.338 76.5487 298.329 76.5225C298.319 76.4964 298.315 76.4685 298.317 76.4408C298.32 76.3824 298.345 76.3274 298.388 76.2872C298.43 76.247 298.486 76.2247 298.545 76.2248C299.463 76.2311 300.37 76.0318 301.201 75.6414C302.031 75.251 302.764 74.6794 303.345 73.9688C303.386 73.9325 303.44 73.9125 303.495 73.9125C303.55 73.9125 303.603 73.9325 303.645 73.9688C303.684 74.009 303.705 74.0628 303.705 74.1188C303.705 74.1747 303.684 74.2285 303.645 74.2688C303.023 75.0241 302.24 75.6306 301.354 76.0438C300.467 76.457 299.499 76.6665 298.521 76.6568Z" fill="#263238"/>
<path d="M305.408 64.1422C305.351 64.1716 305.287 64.187 305.222 64.187C305.158 64.187 305.094 64.1716 305.036 64.1422C304.587 63.852 304.077 63.6714 303.545 63.6151C303.013 63.5589 302.476 63.6284 301.976 63.8182C301.928 63.8425 301.875 63.8569 301.82 63.8604C301.766 63.8639 301.711 63.8565 301.66 63.8386C301.608 63.8207 301.561 63.7927 301.521 63.7562C301.48 63.7197 301.447 63.6755 301.424 63.6262C301.38 63.5194 301.379 63.3994 301.421 63.2918C301.464 63.1842 301.547 63.0975 301.652 63.0502C302.28 62.7939 302.96 62.6929 303.634 62.7555C304.309 62.8182 304.959 63.0428 305.528 63.4102C305.574 63.4414 305.614 63.4815 305.644 63.5281C305.674 63.5747 305.695 63.6269 305.705 63.6816C305.715 63.7363 305.714 63.7924 305.703 63.8468C305.691 63.9011 305.668 63.9526 305.636 63.9982C305.576 64.067 305.497 64.1169 305.408 64.1422Z" fill="#263238"/>
<path d="M292.533 61.7403C292.469 61.7249 292.411 61.6916 292.365 61.6443C292.325 61.6052 292.293 61.5585 292.272 61.507C292.25 61.4555 292.239 61.4002 292.239 61.3443C292.239 61.2885 292.25 61.2331 292.272 61.1816C292.293 61.1301 292.325 61.0834 292.365 61.0443C292.825 60.5285 293.398 60.1258 294.039 59.8677C294.68 59.6096 295.372 59.503 296.061 59.5563C296.116 59.5648 296.169 59.5846 296.216 59.6144C296.263 59.6442 296.304 59.6833 296.336 59.7295C296.367 59.7756 296.389 59.8277 296.399 59.8825C296.41 59.9374 296.409 59.9938 296.397 60.0483C296.371 60.1594 296.306 60.2573 296.213 60.3236C296.12 60.3899 296.006 60.42 295.893 60.4083C295.348 60.374 294.802 60.4642 294.296 60.6721C293.791 60.88 293.34 61.2002 292.977 61.6083C292.922 61.6691 292.852 61.7135 292.773 61.7368C292.695 61.7601 292.612 61.7613 292.533 61.7403Z" fill="#263238"/>
<path d="M337.677 110.785L325.197 107.461C325.197 107.461 312.957 137.593 308.625 139.549C302.745 142.237 287.853 151.549 281.517 155.953C281.169 157.453 281.445 161.425 282.237 162.517C293.037 160.549 313.713 152.593 318.033 148.549C327.885 139.321 337.677 110.785 337.677 110.785Z" fill="#E58A7B"/>
<path d="M328.964 407.882C328.355 407.93 327.748 407.765 327.248 407.414C327.094 407.275 326.978 407.097 326.913 406.899C326.848 406.702 326.835 406.49 326.876 406.286C326.884 406.159 326.926 406.035 326.998 405.93C327.069 405.824 327.168 405.74 327.284 405.686C328.292 405.17 331.112 406.958 331.436 407.162C331.472 407.184 331.499 407.217 331.515 407.256C331.53 407.295 331.532 407.338 331.52 407.378C331.51 407.42 331.489 407.459 331.46 407.49C331.43 407.522 331.393 407.545 331.352 407.558C330.57 407.75 329.769 407.859 328.964 407.882ZM327.764 406.01C327.673 405.99 327.579 405.99 327.488 406.01C327.442 406.033 327.404 406.07 327.379 406.115C327.353 406.159 327.341 406.211 327.344 406.262C327.312 406.402 327.318 406.547 327.36 406.684C327.402 406.821 327.479 406.945 327.584 407.042C328.052 407.462 329.228 407.51 330.776 407.21C329.855 406.603 328.816 406.194 327.728 406.01H327.764Z" fill="#304370"/>
<path d="M331.292 407.557C331.261 407.567 331.227 407.567 331.196 407.557C330.296 407.053 328.604 405.073 328.856 404.065C328.894 403.905 328.984 403.762 329.112 403.66C329.241 403.558 329.4 403.502 329.564 403.501C329.725 403.479 329.889 403.493 330.044 403.54C330.199 403.588 330.343 403.668 330.464 403.777C331.46 404.629 331.52 407.245 331.52 407.377C331.526 407.416 331.518 407.456 331.499 407.491C331.479 407.526 331.449 407.553 331.412 407.569C331.372 407.577 331.33 407.573 331.292 407.557ZM329.684 403.897H329.6C329.324 403.897 329.288 404.053 329.276 404.113C329.132 404.701 330.2 406.201 331.088 406.909C331.084 405.895 330.77 404.907 330.188 404.077C330.049 403.955 329.869 403.891 329.684 403.897Z" fill="#304370"/>
<path d="M297.104 406.38C296.37 406.636 295.571 406.636 294.836 406.38C294.67 406.29 294.528 406.159 294.426 405.999C294.323 405.84 294.262 405.657 294.248 405.468C294.233 405.349 294.248 405.229 294.292 405.117C294.337 405.006 294.408 404.908 294.5 404.832C295.46 403.968 299.384 404.832 299.828 405C299.871 405.011 299.908 405.036 299.934 405.071C299.96 405.106 299.974 405.148 299.972 405.192C299.974 405.237 299.963 405.281 299.939 405.32C299.916 405.358 299.881 405.389 299.84 405.408C298.957 405.807 298.042 406.132 297.104 406.38ZM295.148 404.952C295.011 404.98 294.883 405.041 294.776 405.132C294.738 405.161 294.709 405.199 294.692 405.244C294.675 405.289 294.671 405.337 294.68 405.384C294.688 405.51 294.727 405.632 294.795 405.739C294.862 405.846 294.954 405.934 295.064 405.996C295.7 406.332 297.176 406.068 299.084 405.264C297.799 404.94 296.469 404.834 295.148 404.952Z" fill="#304370"/>
<path d="M299.805 405.41H299.709C298.509 405.194 296.109 403.814 296.037 402.782C296.037 402.542 296.145 402.206 296.721 402.014C296.916 401.945 297.122 401.915 297.328 401.928C297.535 401.94 297.736 401.994 297.921 402.086C299.217 402.722 299.901 405.026 299.937 405.134C299.946 405.17 299.944 405.208 299.934 405.244C299.923 405.28 299.904 405.312 299.877 405.338C299.859 405.367 299.835 405.392 299.805 405.41ZM296.961 402.374H296.841C296.469 402.506 296.469 402.662 296.469 402.71C296.469 403.334 298.209 404.474 299.421 404.858C299.142 403.894 298.551 403.05 297.741 402.458C297.5 402.336 297.223 402.306 296.961 402.374Z" fill="#304370"/>
<path d="M282.536 155.245L270.02 161.005L268.568 164.605L273.188 167.713C273.188 167.713 281.828 166.777 284.288 161.221L282.536 155.245Z" fill="#E58A7B"/>
<path d="M283.065 162.721C282.785 160.317 281.991 158 280.737 155.929L282.717 154.441C284.206 156.827 285.156 159.51 285.501 162.301L283.065 162.721Z" fill="#263238"/>
<path d="M285.201 156.949C285.465 157.365 285.595 157.853 285.573 158.345C285.551 158.838 285.377 159.312 285.076 159.702C284.775 160.093 284.361 160.381 283.89 160.528C283.419 160.675 282.914 160.673 282.445 160.523C281.975 160.373 281.563 160.081 281.264 159.689C280.966 159.296 280.796 158.821 280.777 158.328C280.758 157.835 280.892 157.349 281.159 156.935C281.427 156.52 281.816 156.199 282.273 156.013C282.786 155.752 283.381 155.703 283.929 155.879C284.478 156.054 284.934 156.439 285.201 156.949Z" fill="#263238"/>
<path d="M261.561 165.662L263.229 167.342L274.461 162.542L270.021 161.006L261.561 165.662Z" fill="#E58A7B"/>
<path opacity="0.2" d="M309.788 384.996C309.86 384.996 311.492 389.58 311.492 389.58L294.884 396.564L292.268 391.692L309.788 384.996Z" fill="black"/>
<path opacity="0.2" d="M343.737 390.818C343.809 390.818 344.289 395.438 344.289 395.438H326.097L324.801 390.134L343.737 390.818Z" fill="black"/>
<path d="M340.928 107.328C344.228 117.972 331.328 132.528 331.328 132.528L313.508 125.256C315.621 119.104 318.056 113.068 320.804 107.172C326.276 95.3762 337.592 96.5882 340.928 107.328Z" fill="#304370"/>
<path opacity="0.2" d="M340.928 107.328C344.228 117.972 331.328 132.528 331.328 132.528L313.508 125.256C315.621 119.104 318.056 113.068 320.804 107.172C326.276 95.3762 337.592 96.5882 340.928 107.328Z" fill="black"/>
<path d="M163.856 0.685181H156.188V1.92118H163.856V0.685181Z" fill="#304370"/>
<path d="M263.118 49.6057L262.19 70.2008L263.425 70.2564L264.353 49.6613L263.118 49.6057Z" fill="#304370"/>
<path d="M260.732 6.22815H119.132L105.956 301.092H247.556L260.732 6.22815Z" fill="#304370"/>
<path opacity="0.56" d="M256.508 10.2852H114.908L101.732 305.149H243.332L256.508 10.2852Z" fill="#FAFAFA"/>
<path d="M252.284 14.3281H110.684L97.4961 309.192H239.096L252.284 14.3281Z" fill="#E4EBFF"/>
<path d="M236.168 142.932H115.304L114.296 165.492H235.16L236.168 142.932Z" fill="white"/>
<path d="M181.772 126.47H116.036L115.592 136.562H181.328L181.772 126.47Z" fill="#304370"/>
<path d="M233.445 203.82H112.581L111.573 226.38H232.437L233.445 203.82Z" fill="white"/>
<path opacity="0.47" d="M211.28 256.85H130.004L128.792 283.886H210.068L211.28 256.85Z" fill="#304370"/>
<path d="M205.845 288.084H124.569C124.533 288.094 124.496 288.094 124.461 288.084C124.449 288.049 124.449 288.011 124.461 287.976L125.661 260.928C125.66 260.91 125.664 260.892 125.672 260.875C125.679 260.858 125.69 260.843 125.703 260.831C125.717 260.818 125.733 260.809 125.75 260.803C125.768 260.797 125.786 260.795 125.805 260.796H207.081C207.095 260.789 207.112 260.785 207.129 260.785C207.145 260.785 207.162 260.789 207.177 260.796C207.185 260.811 207.189 260.828 207.189 260.844C207.189 260.861 207.185 260.878 207.177 260.892L206.001 288C205.986 288.029 205.964 288.052 205.936 288.067C205.908 288.082 205.876 288.088 205.845 288.084ZM124.713 287.796H205.701L206.901 261.036H125.913L124.713 287.796Z" fill="white"/>
<path d="M167.576 187.358H113.312L112.868 197.462H167.12L167.576 187.358Z" fill="#304370"/>
<path d="M209.732 70.0578C209.422 76.6234 207.087 82.9321 203.048 88.1178C200.058 92.0347 196.211 95.2146 191.801 97.4133C187.391 99.6121 182.536 100.771 177.608 100.802C173.626 100.832 169.68 100.047 166.013 98.4945C162.346 96.9421 159.036 94.6553 156.286 91.7751C153.536 88.8949 151.405 85.4822 150.024 81.7472C148.643 78.0122 148.042 74.0341 148.256 70.0578C148.678 61.8066 152.237 54.0283 158.203 48.3136C164.17 42.5989 172.095 39.3795 180.356 39.3138C184.341 39.2766 188.292 40.057 191.963 41.6067C195.635 43.1565 198.949 45.4426 201.702 48.3239C204.455 51.2053 206.589 54.6205 207.97 58.3587C209.351 62.0969 209.951 66.0786 209.732 70.0578Z" fill="white"/>
<path d="M212.624 45.7455C212.545 47.4913 211.925 49.1692 210.848 50.5455C210.051 51.5859 209.027 52.4305 207.854 53.0149C206.681 53.5993 205.39 53.908 204.08 53.9175C202.81 53.9252 201.558 53.622 200.432 53.0342C199.307 52.4464 198.343 51.5919 197.624 50.5455C196.671 49.1315 196.2 47.4484 196.28 45.7455C196.396 43.5548 197.343 41.4909 198.928 39.9746C200.514 38.4583 202.618 37.6038 204.812 37.5855C205.87 37.5759 206.919 37.783 207.894 38.1942C208.869 38.6054 209.75 39.2119 210.482 39.9764C211.214 40.7409 211.781 41.6472 212.15 42.6394C212.518 43.6315 212.679 44.6887 212.624 45.7455Z" fill="#304370"/>
<path d="M128.324 154.213C128.267 155.18 127.845 156.089 127.143 156.757C126.442 157.425 125.513 157.802 124.544 157.813C124.077 157.818 123.613 157.728 123.181 157.547C122.75 157.366 122.36 157.099 122.036 156.761C121.712 156.424 121.461 156.024 121.298 155.585C121.135 155.147 121.064 154.68 121.088 154.213C121.14 153.244 121.561 152.331 122.263 151.662C122.966 150.993 123.898 150.617 124.868 150.613C125.335 150.609 125.799 150.7 126.229 150.882C126.66 151.063 127.049 151.331 127.372 151.668C127.696 152.005 127.947 152.404 128.111 152.842C128.274 153.28 128.347 153.746 128.324 154.213Z" fill="#263238"/>
<path d="M144.501 154.213C144.446 155.181 144.025 156.092 143.323 156.76C142.62 157.429 141.69 157.805 140.721 157.813C140.254 157.817 139.791 157.725 139.362 157.544C138.932 157.362 138.543 157.094 138.221 156.757C137.898 156.42 137.648 156.02 137.486 155.583C137.323 155.145 137.252 154.679 137.277 154.213C137.329 153.246 137.747 152.335 138.447 151.666C139.148 150.997 140.076 150.621 141.045 150.613C141.512 150.607 141.976 150.698 142.408 150.878C142.839 151.059 143.229 151.327 143.553 151.664C143.877 152.002 144.128 152.402 144.291 152.84C144.454 153.279 144.525 153.746 144.501 154.213Z" fill="#263238"/>
<path d="M160.688 154.213C160.634 155.181 160.212 156.092 159.51 156.76C158.808 157.429 157.878 157.805 156.908 157.813C156.441 157.817 155.978 157.725 155.548 157.544C155.117 157.362 154.728 157.095 154.404 156.758C154.081 156.421 153.83 156.021 153.666 155.583C153.502 155.146 153.429 154.679 153.452 154.213C153.507 153.245 153.928 152.334 154.631 151.665C155.333 150.997 156.263 150.62 157.232 150.613C157.7 150.607 158.164 150.698 158.595 150.878C159.027 151.059 159.416 151.327 159.74 151.664C160.064 152.002 160.315 152.402 160.479 152.84C160.642 153.279 160.713 153.746 160.688 154.213Z" fill="#263238"/>
<path d="M125.6 215.101C125.542 216.068 125.12 216.977 124.419 217.645C123.717 218.313 122.789 218.691 121.82 218.701C121.353 218.705 120.89 218.613 120.459 218.432C120.029 218.251 119.64 217.983 119.316 217.646C118.992 217.309 118.741 216.909 118.577 216.472C118.414 216.034 118.341 215.568 118.364 215.101C118.419 214.133 118.84 213.222 119.542 212.554C120.244 211.885 121.174 211.509 122.144 211.501C122.611 211.497 123.074 211.589 123.505 211.77C123.935 211.952 124.324 212.219 124.648 212.556C124.971 212.893 125.223 213.293 125.387 213.731C125.55 214.168 125.623 214.635 125.6 215.101Z" fill="#263238"/>
<path d="M141.776 215.101C141.721 216.067 141.302 216.976 140.602 217.645C139.903 218.313 138.976 218.691 138.008 218.701C137.54 218.707 137.077 218.616 136.645 218.436C136.214 218.255 135.824 217.987 135.5 217.65C135.176 217.313 134.925 216.912 134.762 216.474C134.599 216.035 134.527 215.568 134.552 215.101C134.607 214.133 135.028 213.222 135.73 212.554C136.432 211.885 137.363 211.509 138.332 211.501C138.799 211.497 139.261 211.589 139.691 211.77C140.121 211.952 140.509 212.22 140.832 212.557C141.155 212.894 141.405 213.294 141.567 213.731C141.73 214.169 141.801 214.635 141.776 215.101Z" fill="#263238"/>
<path d="M158 215.101C157.945 216.069 157.524 216.98 156.822 217.648C156.12 218.317 155.189 218.693 154.22 218.701C153.753 218.703 153.291 218.61 152.861 218.428C152.431 218.246 152.043 217.979 151.72 217.642C151.397 217.305 151.145 216.907 150.981 216.47C150.816 216.033 150.743 215.567 150.764 215.101C150.821 214.134 151.244 213.225 151.945 212.557C152.646 211.889 153.575 211.511 154.544 211.501C155.011 211.495 155.475 211.586 155.907 211.767C156.338 211.948 156.728 212.215 157.052 212.552C157.376 212.89 157.627 213.29 157.79 213.728C157.953 214.167 158.024 214.634 158 215.101Z" fill="#263238"/>
<path d="M174.152 215.101C174.094 216.068 173.672 216.977 172.97 217.645C172.269 218.313 171.34 218.69 170.372 218.701C169.905 218.703 169.443 218.61 169.013 218.428C168.583 218.246 168.195 217.979 167.872 217.642C167.548 217.305 167.297 216.906 167.133 216.47C166.968 216.033 166.895 215.567 166.916 215.101C166.973 214.134 167.395 213.225 168.097 212.557C168.798 211.889 169.727 211.511 170.696 211.501C171.163 211.497 171.626 211.589 172.056 211.77C172.487 211.952 172.876 212.219 173.2 212.556C173.523 212.893 173.774 213.293 173.938 213.73C174.102 214.168 174.175 214.634 174.152 215.101Z" fill="#263238"/>
<path d="M190.4 215.101C190.342 216.068 189.92 216.977 189.219 217.645C188.517 218.313 187.589 218.69 186.62 218.701C186.152 218.706 185.688 218.616 185.257 218.435C184.826 218.254 184.436 217.987 184.112 217.65C183.788 217.312 183.537 216.912 183.374 216.474C183.211 216.035 183.139 215.568 183.164 215.101C183.219 214.133 183.64 213.222 184.342 212.553C185.044 211.885 185.974 211.509 186.944 211.501C187.411 211.497 187.874 211.589 188.305 211.77C188.735 211.952 189.124 212.219 189.448 212.556C189.771 212.893 190.023 213.293 190.186 213.73C190.35 214.168 190.423 214.634 190.4 215.101Z" fill="#263238"/>
<path d="M187.944 68.4568C192.967 63.5451 193.234 55.6723 188.54 50.8723C183.846 46.0724 175.969 46.163 170.946 51.0747C165.924 55.9863 165.657 63.8591 170.351 68.6591C175.045 73.459 182.922 73.3685 187.944 68.4568Z" fill="#304370"/>
<path d="M203.047 88.1164C200.057 92.0334 196.21 95.2133 191.8 97.412C187.39 99.6107 182.535 100.77 177.607 100.8C172.829 100.841 168.114 99.7051 163.878 97.4931C159.643 95.2811 156.017 92.0609 153.319 88.1164C159.151 82.3084 168.379 78.5164 178.603 78.5164C188.827 78.5164 197.731 82.3084 203.047 88.1164Z" fill="#304370"/>
<path opacity="0.1" d="M187.944 68.4568C192.967 63.5451 193.234 55.6723 188.54 50.8723C183.846 46.0724 175.969 46.163 170.946 51.0747C165.924 55.9863 165.657 63.8591 170.351 68.6591C175.045 73.459 182.922 73.3685 187.944 68.4568Z" fill="white"/>
<path opacity="0.1" d="M203.047 88.1164C200.057 92.0334 196.21 95.2133 191.8 97.412C187.39 99.6107 182.535 100.77 177.607 100.8C172.829 100.841 168.114 99.7051 163.878 97.4931C159.643 95.2811 156.017 92.0609 153.319 88.1164C159.151 82.3084 168.379 78.5164 178.603 78.5164C188.827 78.5164 197.731 82.3084 203.047 88.1164Z" fill="white"/>
<path d="M26.4921 170.93C25.3521 173.426 24.1521 176.174 23.1081 178.838C22.0641 181.502 20.9961 184.25 20.0721 186.986C18.1855 192.378 16.7486 197.917 15.7761 203.546L15.5121 205.31C15.4869 205.612 15.5153 205.917 15.5961 206.21C15.8793 207.204 16.3253 208.145 16.9161 208.994C18.4571 211.191 20.2448 213.204 22.2441 214.994C24.352 216.955 26.5631 218.801 28.8681 220.526C31.1721 222.302 33.5961 224.03 35.9841 225.662L33.7401 229.874C28.0379 227.389 22.6255 224.287 17.6001 220.622C14.9189 218.667 12.4993 216.376 10.4001 213.806C9.15576 212.276 8.18545 210.542 7.53206 208.682C7.15216 207.52 6.95777 206.305 6.95605 205.082C6.95605 204.794 6.95605 204.374 6.95605 204.17V203.582L7.07606 202.382C7.76401 196.13 9.07861 189.963 11.0001 183.974C11.9361 181.022 12.9321 178.082 14.0721 175.214C15.2121 172.346 16.3881 169.538 17.8401 166.622L26.4921 170.93Z" fill="#FBBAAF"/>
<path d="M34.2916 224.918L42.7756 220.622L40.5796 229.934C40.5796 229.934 34.7596 231.566 32.0596 228.734L34.2916 224.918Z" fill="#E58A7B"/>
<path d="M50.5391 222.146L48.2831 229.85L40.5791 229.934L42.7751 220.622L50.5391 222.146Z" fill="#E58A7B"/>
<path d="M62.5162 126C62.97 127.663 63.6016 129.272 64.4002 130.8C64.1669 131.065 63.8664 131.261 63.5305 131.369C63.1946 131.477 62.8359 131.492 62.4922 131.412L62.5162 126Z" fill="#DF5753"/>
<path d="M62.2638 126.074C62.7608 126.074 63.1638 125.456 63.1638 124.694C63.1638 123.932 62.7608 123.314 62.2638 123.314C61.7667 123.314 61.3638 123.932 61.3638 124.694C61.3638 125.456 61.7667 126.074 62.2638 126.074Z" fill="#263238"/>
<path d="M62 123.361L63.824 122.845C63.824 122.845 62.936 124.261 62 123.361Z" fill="#263238"/>
<path d="M39.08 134.81C40.172 140.39 41.2641 150.626 37.3521 154.358C37.3521 154.358 38.888 160.022 49.268 160.022C60.68 160.022 54.716 154.358 54.716 154.358C48.488 152.87 48.644 148.25 49.736 143.906L39.08 134.81Z" fill="#FBBAAF"/>
<path d="M36.0439 122.089C36.6199 131.413 36.6679 135.373 41.3719 140.161C48.4639 147.361 59.7919 144.625 62.0119 135.361C64.0159 126.961 62.7439 113.137 53.6119 109.429C51.6073 108.604 49.4253 108.303 47.2721 108.556C45.119 108.808 43.0659 109.606 41.307 110.874C39.5482 112.141 38.1418 113.836 37.2208 115.799C36.2998 117.762 35.8947 119.927 36.0439 122.089Z" fill="#FBBAAF"/>
<path d="M36.968 111.6C32.288 113.304 26.048 112.032 28.496 126.468C31.088 141.756 27.104 146.784 27.104 146.784C27.104 146.784 44.852 150.564 62.972 146.556C62.972 146.556 57.44 136.884 58.988 129.756C60.968 120.756 59.408 117.432 59.408 117.432C59.408 117.432 43.544 109.2 36.968 111.6Z" fill="#263238"/>
<path d="M56.7676 126.949C56.7725 128.722 57.2801 130.457 58.2316 131.953C59.5036 133.897 61.0036 133.153 61.3756 131.089C61.7116 129.277 61.4596 126.073 59.8396 124.825C58.2196 123.577 56.7916 124.801 56.7676 126.949Z" fill="#FBBAAF"/>
<path d="M32.8993 113.173C31.5553 109.393 37.9633 103.573 51.5233 105.973C65.0833 108.373 65.6713 119.665 65.6713 119.665L62.9353 116.401L63.0553 119.833L49.1233 122.509L32.8993 113.173Z" fill="#263238"/>
<path d="M34.0521 154.994C33.9721 154.446 34.1091 153.888 34.4342 153.44C34.7592 152.992 35.2465 152.688 35.7921 152.594C40.0161 151.898 49.6161 150.482 54.4401 151.154C58.0401 151.658 58.9761 153.746 59.1321 155.462C59.1565 155.762 59.1163 156.064 59.0142 156.348C58.9122 156.632 58.7505 156.89 58.5402 157.106C58.3299 157.322 58.0758 157.491 57.795 157.6C57.5142 157.71 57.2131 157.758 56.9121 157.742L36.0561 156.806C35.5644 156.781 35.0964 156.587 34.7312 156.257C34.3661 155.927 34.1262 155.48 34.0521 154.994Z" fill="#407BFF"/>
<path opacity="0.6" d="M34.0521 154.994C33.9721 154.446 34.1091 153.888 34.4342 153.44C34.7592 152.992 35.2465 152.688 35.7921 152.594C40.0161 151.898 49.6161 150.482 54.4401 151.154C58.0401 151.658 58.9761 153.746 59.1321 155.462C59.1565 155.762 59.1163 156.064 59.0142 156.348C58.9122 156.632 58.7505 156.89 58.5402 157.106C58.3299 157.322 58.0758 157.491 57.795 157.6C57.5142 157.71 57.2131 157.758 56.9121 157.742L36.0561 156.806C35.5644 156.781 35.0964 156.587 34.7312 156.257C34.3661 155.927 34.1262 155.48 34.0521 154.994Z" fill="black"/>
<path d="M46.1118 364.632L53.8518 370.008L66.7998 352.452L59.0598 347.088L46.1118 364.632Z" fill="#F8AFA2"/>
<path d="M28.0635 364.286L36.2355 368.942L47.6955 350.378L39.5235 345.722L28.0635 364.286Z" fill="#F8AFA2"/>
<path d="M66.7875 352.452L60.1155 361.5L52.3755 356.136L59.0475 347.088L66.7875 352.452Z" fill="#E5B6B1"/>
<path d="M39.5119 345.722L47.6959 350.39L41.7919 359.954L33.6079 355.286L39.5119 345.722Z" fill="#E5B6B1"/>
<path d="M52.6399 213.6C52.6399 213.6 82.8559 251.676 77.1798 288.096C72.6078 317.508 46.0879 357.336 46.0879 357.336L33.6199 351.144C42.408 333.534 49.9077 315.31 56.0599 296.616C57.957 290.812 58.5107 284.653 57.6792 278.603C56.8477 272.554 54.6527 266.773 51.2599 261.696C35.9479 239.34 11.4199 252.648 27.9199 213.6H52.6399Z" fill="#407BFF"/>
<path opacity="0.6" d="M52.6399 213.6C52.6399 213.6 82.8559 251.676 77.1798 288.096C72.6078 317.508 46.0879 357.336 46.0879 357.336L33.6199 351.144C42.408 333.534 49.9077 315.31 56.0599 296.616C57.957 290.812 58.5107 284.653 57.6792 278.603C56.8477 272.554 54.6527 266.773 51.2599 261.696C35.9479 239.34 11.4199 252.648 27.9199 213.6H52.6399Z" fill="#2F4370"/>
<path opacity="0.4" d="M67.4594 238.056L63.0674 233.688C63.0674 234.036 71.5754 286.56 73.9634 301.32C75.3726 297.008 76.4517 292.596 77.1914 288.12C79.9994 270.252 74.1314 252 67.4594 238.056Z" fill="black"/>
<path d="M66.1278 213.6C66.1278 213.6 102.512 261.456 103.544 290.148C104.396 314.148 63.9438 360.648 63.9438 360.648L52.1838 353.04C52.1838 353.04 75.8598 320.016 81.8238 293.04C79.5198 266.304 30.7998 213.6 30.7998 213.6H66.1278Z" fill="#407BFF"/>
<path opacity="0.6" d="M66.1278 213.6C66.1278 213.6 102.512 261.456 103.544 290.148C104.396 314.148 63.9438 360.648 63.9438 360.648L52.1838 353.04C52.1838 353.04 75.8598 320.016 81.8238 293.04C79.5198 266.304 30.7998 213.6 30.7998 213.6H66.1278Z" fill="#2F4370"/>
<path d="M21.1161 156.493C17.2281 157.417 13.4961 171.553 13.4961 171.553L28.7001 181.705C28.7001 181.705 33.7641 170.521 31.9881 165.625C30.1521 160.525 26.0001 155.329 21.1161 156.493Z" fill="#304370"/>
<path opacity="0.2" d="M24.0912 165.6L23.0352 177.924L28.6872 181.716C30.2478 178.203 31.4032 174.523 32.1312 170.748L24.0912 165.6Z" fill="black"/>
<path d="M70.6277 156.768C70.6277 156.768 75.1157 158.34 66.1277 213.588H27.8957C28.5437 197.988 28.5557 188.388 21.1157 156.492C26.469 155.389 31.8952 154.675 37.3517 154.356C43.1323 153.942 48.9351 153.942 54.7157 154.356C62.1797 155.04 70.6277 156.768 70.6277 156.768Z" fill="#304370"/>
<path d="M74.5154 165.602C75.3794 168.002 76.2914 170.582 77.2514 173.066C78.2114 175.55 79.1234 178.106 80.0954 180.626L83.0354 188.162L83.7794 190.046L84.1634 190.982L84.3434 191.45C84.3434 191.534 84.3434 191.534 84.3434 191.522C84.1242 191.213 83.8368 190.958 83.5034 190.778C83.0287 190.498 82.4935 190.338 81.9434 190.31C81.4863 190.296 81.0317 190.382 80.6114 190.562C80.0594 190.814 80.0594 190.922 80.0714 190.91C80.1712 190.83 80.26 190.737 80.3354 190.634C80.9997 189.762 81.5746 188.825 82.0514 187.838C82.6154 186.734 83.1554 185.558 83.6954 184.37C84.7514 181.97 85.7234 179.486 86.6954 176.978C87.6674 174.47 88.5914 171.938 89.4914 169.382L92.2274 161.726L96.8474 162.926C95.9354 168.398 94.7594 173.726 93.3434 179.15C92.6594 181.85 91.8554 184.526 90.9434 187.226C90.4874 188.582 89.9834 189.926 89.4074 191.306C88.8071 192.804 88.0678 194.242 87.1994 195.602C86.8803 196.06 86.5273 196.493 86.1434 196.898C85.5306 197.56 84.7869 198.087 83.9594 198.446C83.2252 198.761 82.4299 198.909 81.6314 198.878C80.737 198.844 79.8657 198.584 79.0994 198.122C78.1954 197.558 77.4451 196.778 76.9154 195.854C76.7354 195.542 76.5794 195.23 76.4714 195.002L76.2434 194.546L75.7874 193.61L74.8754 191.75C73.6754 189.254 72.4754 186.734 71.4314 184.202C70.3874 181.67 69.2834 179.102 68.2514 176.522C67.2194 173.942 66.2954 171.362 65.4194 168.578L74.5154 165.602Z" fill="#FBBAAF"/>
<path d="M70.6283 156.77C75.2243 157.862 80.3963 171.446 80.3963 171.446L66.7283 183.074C66.7283 183.074 57.8843 168.266 59.6723 163.382C61.5323 158.294 64.6283 155.342 70.6283 156.77Z" fill="#304370"/>
<path d="M94.4 157.43L99.2 153.422L102.536 158.618L100.076 162.95C100.076 162.95 96.164 166.55 92.708 164.714C92.1595 163.481 92.0279 162.103 92.3333 160.788C92.6386 159.474 93.3642 158.295 94.4 157.43Z" fill="#FBBAAF"/>
<path d="M107.864 153.434L107.504 154.742L99.9076 156.014L99.1636 153.422L107.864 153.434Z" fill="#FBBAAF"/>
<path d="M64.8793 361.262L51.1753 352.406L53.6353 348.134L69.0313 357.602L64.8793 361.262Z" fill="#26365A"/>
<path d="M41.5993 368.317C40.3969 368.17 39.2416 367.76 38.2153 367.117C38.173 367.102 38.1363 367.075 38.1103 367.038C38.0843 367.002 38.0703 366.958 38.0703 366.913C38.0703 366.868 38.0843 366.824 38.1103 366.788C38.1363 366.751 38.173 366.724 38.2153 366.709C38.5873 366.589 41.8153 365.593 42.7513 366.361C42.8565 366.448 42.9365 366.562 42.9829 366.691C43.0293 366.82 43.0405 366.958 43.0153 367.093C42.9986 367.309 42.9271 367.517 42.8074 367.698C42.6877 367.878 42.5238 368.025 42.3313 368.125C42.1066 368.248 41.8553 368.313 41.5993 368.317ZM38.8993 366.997C40.3993 367.765 41.5993 368.041 42.1753 367.753C42.3007 367.683 42.4063 367.583 42.4819 367.461C42.5575 367.339 42.6007 367.2 42.6073 367.057C42.6073 366.865 42.6073 366.781 42.4993 366.733C41.9953 366.325 40.1953 366.637 38.8753 366.997H38.8993Z" fill="#263238"/>
<path d="M38.2997 367.2C38.2364 367.199 38.176 367.173 38.1317 367.128C38.1138 367.095 38.1045 367.058 38.1045 367.02C38.1045 366.982 38.1138 366.945 38.1317 366.912C38.1317 366.804 38.9117 364.2 40.1357 363.612C40.292 363.541 40.4619 363.504 40.6337 363.504C40.8055 363.504 40.9754 363.541 41.1317 363.612C41.3002 363.665 41.4461 363.773 41.5461 363.919C41.6462 364.065 41.6946 364.24 41.6837 364.416C41.5997 365.496 39.4037 366.984 38.3957 367.236L38.2997 367.2ZM40.6277 363.924C40.511 363.928 40.3964 363.956 40.2917 364.008C39.5477 364.368 38.9357 365.772 38.6357 366.624C39.6917 366.18 41.1437 365.004 41.1917 364.344C41.1917 364.236 41.1917 364.104 40.9157 363.984C40.8259 363.936 40.7285 363.903 40.6277 363.888V363.924Z" fill="#263238"/>
<path d="M58.7237 373.5C57.3677 373.5 55.4837 371.76 54.4517 370.692C54.4253 370.655 54.4111 370.611 54.4111 370.566C54.4111 370.521 54.4253 370.477 54.4517 370.44C54.4754 370.401 54.5091 370.37 54.5492 370.349C54.5893 370.327 54.6344 370.318 54.6797 370.32C55.1597 370.32 59.3237 370.944 59.9117 372.12C59.974 372.225 60.0068 372.346 60.0068 372.468C60.0068 372.59 59.974 372.711 59.9117 372.816C59.8235 372.999 59.6903 373.157 59.5244 373.274C59.3586 373.392 59.1657 373.465 58.9637 373.488L58.7237 373.5ZM55.2437 370.86C56.7557 372.324 58.0877 373.14 58.8437 373.044C58.9761 373.027 59.1022 372.977 59.211 372.9C59.3198 372.822 59.4079 372.719 59.4677 372.6C59.4945 372.559 59.5088 372.511 59.5088 372.462C59.5088 372.413 59.4945 372.365 59.4677 372.324C59.1557 371.676 56.9357 371.124 55.2437 370.86Z" fill="#263238"/>
<path d="M55.3762 370.8C55.1069 370.808 54.8374 370.788 54.5722 370.74C54.5352 370.735 54.5002 370.72 54.4708 370.696C54.4413 370.673 54.4184 370.643 54.4042 370.608C54.3863 370.573 54.377 370.534 54.377 370.494C54.377 370.455 54.3863 370.415 54.4042 370.38C54.4762 370.296 56.0962 368.34 57.6322 368.208C58.067 368.174 58.4978 368.312 58.8322 368.592C59.3002 369 59.2762 369.36 59.1562 369.588C58.8562 370.404 56.7802 370.8 55.3762 370.8ZM55.0642 370.356C56.4082 370.428 58.5562 369.984 58.8322 369.396C58.8322 369.396 58.9282 369.204 58.6162 368.94C58.4921 368.832 58.347 368.751 58.1901 368.701C58.0333 368.652 57.8679 368.635 57.7042 368.652C56.6695 368.941 55.7482 369.54 55.0642 370.368V370.356Z" fill="#263238"/>
<path d="M38.6244 365.905L28.4483 363.025C28.2729 362.972 28.0841 362.985 27.918 363.063C27.7519 363.14 27.6203 363.276 27.5483 363.445L24.1163 371.161C24.0357 371.358 23.9979 371.571 24.0053 371.784C24.0127 371.998 24.0652 372.207 24.1592 372.398C24.2533 372.59 24.3869 372.759 24.5512 372.896C24.7154 373.032 24.9067 373.132 25.1123 373.189C28.7123 374.125 30.4403 374.389 34.9163 375.673C37.6763 376.441 41.6123 377.869 45.4163 378.949C49.2203 380.029 50.4923 376.321 49.0163 375.529C42.3443 372.001 41.8163 369.529 39.9923 366.889C39.6657 366.411 39.1815 366.063 38.6244 365.905Z" fill="#263238"/>
<path d="M54.7276 369.288L46.0396 363.288C45.8923 363.181 45.7108 363.131 45.5294 363.149C45.348 363.166 45.1794 363.25 45.0556 363.384L39.2956 369.576C39.1553 369.736 39.0506 369.924 38.9885 370.128C38.9264 370.331 38.9084 370.546 38.9357 370.757C38.9629 370.968 39.0348 371.171 39.1465 371.352C39.2582 371.533 39.4072 371.689 39.5836 371.808C42.6436 373.86 44.2276 374.688 48.0556 377.34C50.4556 378.972 55.0996 382.596 58.3396 384.852C61.5796 387.108 63.9916 384.012 62.8396 382.788C57.6796 377.28 56.5516 373.824 55.6996 370.692C55.5517 370.124 55.2074 369.626 54.7276 369.288Z" fill="#263238"/>
<path d="M47.6834 358.128L32.0234 350.34L33.6434 346.092L50.3714 354.3L47.6834 358.128Z" fill="#304370"/>
<path d="M27.3203 211.345L26.0003 214.801C25.8683 215.065 26.1803 215.341 26.6243 215.341H66.3203C66.6683 215.341 66.9563 215.173 66.9803 214.957L67.3163 211.525C67.3163 211.297 67.0403 211.093 66.6683 211.093H27.9443C27.8277 211.082 27.7102 211.099 27.6016 211.143C27.493 211.187 27.3966 211.256 27.3203 211.345Z" fill="#407BFF"/>
<path opacity="0.4" d="M27.3203 211.345L26.0003 214.801C25.8683 215.065 26.1803 215.341 26.6243 215.341H66.3203C66.6683 215.341 66.9563 215.173 66.9803 214.957L67.3163 211.525C67.3163 211.297 67.0403 211.093 66.6683 211.093H27.9443C27.8277 211.082 27.7102 211.099 27.6016 211.143C27.493 211.187 27.3966 211.256 27.3203 211.345Z" fill="white"/>
<path d="M33.5719 215.677H32.5279C32.3239 215.677 32.1678 215.569 32.1798 215.437L32.6719 210.985C32.6719 210.865 32.8639 210.757 33.0679 210.757H34.1118C34.3158 210.757 34.4719 210.865 34.4599 210.985L33.9679 215.437C33.9559 215.569 33.7759 215.677 33.5719 215.677Z" fill="#407BFF"/>
<path d="M58.052 215.677H57.02C56.816 215.677 56.66 215.569 56.672 215.437L57.152 210.985C57.152 210.865 57.356 210.757 57.56 210.757H58.592C58.796 210.757 58.964 210.865 58.94 210.985L58.46 215.437C58.4 215.569 58.268 215.677 58.052 215.677Z" fill="#407BFF"/>
<g style="mix-blend-mode:multiply">
<path d="M32.6597 418.897C50.4146 418.897 64.8077 417.855 64.8077 416.569C64.8077 415.284 50.4146 414.241 32.6597 414.241C14.9049 414.241 0.511719 415.284 0.511719 416.569C0.511719 417.855 14.9049 418.897 32.6597 418.897Z" fill="#F5F5F5"/>
</g>
<path d="M52.2438 413.282C46.5558 411.626 40.2438 409.502 36.4278 407.282C36.3198 407.21 36.1998 407.174 36.0918 407.114V381.362H47.5998C48.4734 381.31 49.2942 380.927 49.8944 380.29C50.4947 379.653 50.829 378.811 50.829 377.936C50.829 377.061 50.4947 376.219 49.8944 375.582C49.2942 374.945 48.4734 374.561 47.5998 374.51H36.1518V257.126H29.2398V374.51H17.8038C17.3368 374.482 16.8692 374.55 16.4295 374.71C15.9898 374.87 15.5874 375.117 15.247 375.438C14.9066 375.759 14.6354 376.146 14.45 376.576C14.2646 377.005 14.169 377.468 14.169 377.936C14.169 378.404 14.2646 378.866 14.45 379.296C14.6354 379.725 14.9066 380.112 15.247 380.433C15.5874 380.754 15.9898 381.002 16.4295 381.162C16.8692 381.321 17.3368 381.389 17.8038 381.362H29.2398V407.078C29.1318 407.078 29.0238 407.174 28.9158 407.246C25.0398 409.502 18.7758 411.626 13.0878 413.246C12.7036 413.362 12.3736 413.612 12.1577 413.95C11.9418 414.289 11.8542 414.693 11.9108 415.091C11.9674 415.488 12.1644 415.852 12.4661 416.117C12.7679 416.381 13.1544 416.529 13.5558 416.534H51.7758C52.1594 416.508 52.5224 416.351 52.8042 416.089C53.0861 415.828 53.2697 415.477 53.3245 415.097C53.3792 414.716 53.3018 414.329 53.1051 413.998C52.9085 413.668 52.6044 413.415 52.2438 413.282Z" fill="#E0E0E0"/>
<path d="M54.0076 245.173H11.3356C7.90263 245.173 5.11963 247.956 5.11963 251.389V264.073C5.11963 267.506 7.90263 270.289 11.3356 270.289H54.0076C57.4406 270.289 60.2236 267.506 60.2236 264.073V251.389C60.2236 247.956 57.4406 245.173 54.0076 245.173Z" fill="#1D2539"/>
<path d="M10.9404 270.3V272.484C10.9404 274.284 12.8964 275.748 15.2964 275.748H50.0964C52.4964 275.748 54.4524 274.284 54.4524 272.484V270.3H10.9404Z" fill="#407BFF"/>
<path opacity="0.3" d="M10.9404 270.3V272.484C10.9404 274.284 12.8964 275.748 15.2964 275.748H50.0964C52.4964 275.748 54.4524 274.284 54.4524 272.484V270.3H10.9404Z" fill="#304370"/>
</svg>
