<svg width="29" height="24" viewBox="0 0 29 24" fill="none" xmlns="http://www.w3.org/2000/svg">
<g filter="url(#filter0_d_1_1436)">
<path fill-rule="evenodd" clip-rule="evenodd" d="M16.2316 1.11054C15.6157 1.39328 14.8963 1.8675 14.6326 2.16424C13.9747 2.90524 13.2922 4.6098 13.2922 5.51205C13.2922 6.24157 13.2614 6.25473 11.9689 6.07753C10.1787 5.83202 7.55059 4.54793 5.98123 3.15159C5.27046 2.51948 4.60895 2.08193 4.51153 2.17935C4.1784 2.51276 4.33321 4.80912 4.7422 5.60023C4.96672 6.03442 5.62822 6.7799 6.2119 7.25664L7.27345 8.12361L6.34516 8.13285C5.83482 8.13817 5.17332 8.01192 4.87546 7.85263C4.46114 7.63092 4.33405 7.65387 4.33405 7.95117C4.33405 8.81563 5.6593 10.275 7.11388 11.0118C8.70787 11.8194 8.57546 11.954 6.34068 11.7978C5.51205 11.7399 5.4387 11.7903 5.68477 12.2502C6.16907 13.1547 7.08981 13.8123 8.57658 14.3156L10.0208 14.8047L8.83917 15.4074C8.12363 15.7727 6.80902 16.0893 5.50589 16.2103L3.35425 16.4104L4.89393 17.1397C7.18611 18.2258 9.14626 18.6015 11.4871 18.4036C17.2165 17.9193 21.5701 14.3755 22.9516 9.07177C23.1818 8.188 23.3702 6.9613 23.3702 6.34571C23.3702 5.4317 23.5625 5.02803 24.4199 4.14342L25.4697 3.06005L24.35 3.24733L23.2302 3.43489L23.972 2.77927C24.3799 2.4187 24.9219 1.78912 25.1764 1.3804L25.6394 0.637161L23.9295 1.32777L22.2196 2.01839L20.7804 1.30118C19.0868 0.457159 17.7741 0.402291 16.2316 1.11054Z" fill="#F7FBFD" fill-opacity="0.85" shape-rendering="crispEdges"/>
</g>
<defs>
<filter id="filter0_d_1_1436" x="0.644314" y="0.620117" width="27.705" height="23.2539" filterUnits="userSpaceOnUse" color-interpolation-filters="sRGB">
<feFlood flood-opacity="0" result="BackgroundImageFix"/>
<feColorMatrix in="SourceAlpha" type="matrix" values="0 0 0 0 0 0 0 0 0 0 0 0 0 0 0 0 0 0 127 0" result="hardAlpha"/>
<feOffset dy="2.70993"/>
<feGaussianBlur stdDeviation="1.35497"/>
<feComposite in2="hardAlpha" operator="out"/>
<feColorMatrix type="matrix" values="0 0 0 0 0 0 0 0 0 0 0 0 0 0 0 0 0 0 0.25 0"/>
<feBlend mode="normal" in2="BackgroundImageFix" result="effect1_dropShadow_1_1436"/>
<feBlend mode="normal" in="SourceGraphic" in2="effect1_dropShadow_1_1436" result="shape"/>
</filter>
</defs>
</svg>
