<svg width="37" height="25" viewBox="0 0 37 25" fill="none" xmlns="http://www.w3.org/2000/svg">
<path d="M30.4907 11.1778C29.6886 5.22003 24.6475 0.807617 18.5751 0.807617C13.3616 0.808534 8.83647 4.0743 7.17471 9.00091C3.45157 9.802 0.816406 13.0091 0.816406 16.8477C0.816406 21.0301 4.08218 24.5241 8.26361 24.8678H30.0901C33.5841 24.5241 36.3338 21.5452 36.3338 17.9935C36.3338 14.6131 33.8133 11.692 30.4907 11.176V11.1778ZM24.7043 14.3858C24.5897 14.4995 24.4751 14.5572 24.3037 14.5572C24.1323 14.5572 24.0169 14.4995 23.9023 14.3849L19.148 9.6306V20.8587C19.148 21.2024 18.9188 21.4316 18.5751 21.4316C18.2314 21.4316 18.0023 21.2024 18.0023 20.8587V9.6306L13.2471 14.3858C13.0179 14.615 12.6751 14.615 12.446 14.3858C12.2168 14.1567 12.2168 13.812 12.446 13.5829L18.1746 7.85427C18.2314 7.79745 18.2892 7.74062 18.346 7.74062C18.4606 7.68287 18.6329 7.68287 18.8043 7.74062C18.862 7.79745 18.9188 7.79745 18.9766 7.85427L24.7052 13.5829C24.9343 13.812 24.9334 14.1567 24.7043 14.3858Z" fill="#B3BCCD"/>
</svg>
